<?xml version="1.0" encoding="UTF-8" standalone="no"?>
<!-- Created with Inkscape (http://www.inkscape.org/) -->

<svg
   xmlns:dc="http://purl.org/dc/elements/1.1/"
   xmlns:cc="http://creativecommons.org/ns#"
   xmlns:rdf="http://www.w3.org/1999/02/22-rdf-syntax-ns#"
   xmlns:svg="http://www.w3.org/2000/svg"
   xmlns="http://www.w3.org/2000/svg"
   xmlns:sodipodi="http://sodipodi.sourceforge.net/DTD/sodipodi-0.dtd"
   xmlns:inkscape="http://www.inkscape.org/namespaces/inkscape"
   width="512"
   height="512"
   viewBox="0 0 512.00001 512.00001"
   id="svg2"
   version="1.1"
   inkscape:version="0.91 r13725"
   sodipodi:docname="synced.svg">
  <defs
     id="defs4" />
  <sodipodi:namedview
     id="base"
     pagecolor="#ffffff"
     bordercolor="#666666"
     borderopacity="1.0"
     inkscape:pageopacity="0.0"
     inkscape:pageshadow="2"
     inkscape:zoom="0.98994949"
     inkscape:cx="116.67257"
     inkscape:cy="214.88255"
     inkscape:document-units="px"
     inkscape:current-layer="layer1"
     showgrid="false"
     units="px"
     inkscape:window-width="1411"
     inkscape:window-height="1058"
     inkscape:window-x="1234"
     inkscape:window-y="50"
     inkscape:window-maximized="0" />
  <metadata
     id="metadata7">
    <rdf:RDF>
      <cc:Work
         rdf:about="">
        <dc:format>image/svg+xml</dc:format>
        <dc:type
           rdf:resource="http://purl.org/dc/dcmitype/StillImage" />
        <dc:title />
      </cc:Work>
    </rdf:RDF>
  </metadata>
  <g
     inkscape:label="Layer 1"
     inkscape:groupmode="layer"
     id="layer1"
     transform="translate(0,-540.36216)">
    <text
       xml:space="preserve"
       style="font-style:normal;font-weight:normal;font-size:40px;line-height:125%;font-family:sans-serif;letter-spacing:0px;word-spacing:0px;fill:#000000;fill-opacity:1;stroke:none;stroke-width:1px;stroke-linecap:butt;stroke-linejoin:miter;stroke-opacity:1"
       x="67.680222"
       y="704.86969"
       id="text4140"
       sodipodi:linespacing="125%"><tspan
         sodipodi:role="line"
         id="tspan4142"
         x="67.680222"
         y="704.86969" /></text>
    <g
       style="font-style:normal;font-weight:normal;font-size:180px;line-height:125%;font-family:sans-serif;letter-spacing:0px;word-spacing:0px;fill:#008aff;fill-opacity:1;stroke:none;stroke-width:1px;stroke-linecap:butt;stroke-linejoin:miter;stroke-opacity:1"
       id="text4136"
       transform="matrix(1.7987687,0,0,1.7987687,-40.775338,-679.47185)">
      <path
         d="m 145.30436,905.40878 10.24554,-10.24554 q 1.90848,-1.90848 1.90848,-4.52009 0,-2.6116 -1.90848,-4.52009 l -45.60268,-45.60267 q -1.90848,-1.90849 -4.52009,-1.90849 -2.61161,0 -4.52009,1.90849 l -45.602679,45.60267 q -1.908483,1.90849 -1.908483,4.52009 0,2.61161 1.908483,4.52009 l 10.245535,10.24554 q 1.908482,1.90848 4.52009,1.90848 2.611607,0 4.520089,-1.90848 l 30.837055,-30.83705 30.83705,30.83705 q 1.90848,1.90848 4.52009,1.90848 2.61161,0 4.52009,-1.90848 z M 172.224,842.32842 q 10.34599,17.67857 10.34599,38.67188 0,20.9933 -10.34599,38.77232 -10.34598,17.67857 -28.125,28.02455 -17.67857,10.34598 -38.67187,10.34598 -20.993305,0 -38.772323,-10.34598 Q 48.976236,937.45119 38.630253,919.77262 28.284271,901.9936 28.284271,881.0003 q 0,-20.99331 10.345982,-38.67188 10.345983,-17.77902 28.024554,-28.125 17.779018,-10.34598 38.772323,-10.34598 20.9933,0 38.67187,10.34598 17.77902,10.34598 28.125,28.125 z"
         id="path4141"
         inkscape:connector-curvature="0"
         style="fill:#008aff;fill-opacity:1" />
    </g>
  </g>
</svg>
