<svg xmlns="http://www.w3.org/2000/svg" width="38.75" height="38.75" viewBox="0 0 38.75 38.75"><g transform="matrix(1.25 0 0 -1.25 0 38.75)"><flowRoot xml:space="preserve" style="line-height:125%" font-style="normal" font-weight="400" font-size="40" font-family="sans-serif" letter-spacing="0" word-spacing="0" fill="#000" fill-opacity="1" stroke="none" stroke-width="1" stroke-linecap="butt" stroke-linejoin="miter" stroke-opacity="1"><flowRegion><path d="M-41.896-3.512h30.317v47.023h-30.317z"/></flowRegion><flowPara/></flowRoot><g transform="matrix(1.0246 0 0 -1.0246 -12.673 -6.871)" fill="#3b588a" stroke="#fff" stroke-linecap="square" stroke-linejoin="round" stroke-miterlimit="0"><circle r="1.099" cy="-12.746" cx="33.278" stroke-width=".349"/><circle r="1.145" cy="-8.627" cx="41.26" stroke-width=".364"/><circle r="1.481" cy="-11.773" cx="38.007" stroke-width=".39"/><circle r="1.801" cy="-9.21" cx="31.484" stroke-width=".332"/><circle r="2.125" cy="-9.546" cx="39.209" stroke-width=".392"/><circle r="2.125" cy="-10.288" cx="33.482" stroke-width=".392"/><circle r="2.125" cy="-12.233" cx="35.603" stroke-width=".392"/><circle r="1.145" cy="-8.574" cx="33.605" stroke-width=".364"/><circle r="2.594" cy="-10.023" cx="36.292" stroke-width=".398"/></g><path fill="#fff" d="M16.231 30.325l8.61-7.98-4.035-4.483-8.609 7.98z"/><path d="M.758 23.263V.881H16.03a8.153 8.153 0 0 0-.626 3.116 8.153 8.153 0 0 0 8.153 8.153 8.153 8.153 0 0 0 1.177-.096v11.21H.758z" fill="#fff"/><path fill="#fff" d="M.698 30.705h15.683v-8.62H.698z"/><text style="line-height:125%" x="-18.813" y="-14.238" transform="matrix(1 0 0 -1 27.61 -.518)" font-weight="400" font-size="12.951" font-family="sans-serif" letter-spacing="0" word-spacing="0" fill="#879f4a"><tspan x="-18.813" y="-14.238" style="-inkscape-font-specification:'Arial Rounded MT Bold, '" font-size="13.502" font-family="Arial Rounded MT Bold">X</tspan></text><path d="M1.596 30.985a1.576 1.576 0 0 1-1.58-1.58V1.868C.017.993.722.288 1.597.288h14.708a8.153 8.153 0 0 0-.362.826H1.7a.856.856 0 0 0-.857.857v27.4c0 .475.382.857.857.857h14.112l.003-.003.036.003c.108 0 .205-.015.295-.037a.96.96 0 0 0 .5-.238c.015-.012.032-.02.046-.035l1.322-1.296c.03-.025.06-.044.088-.072l.72-.72.817-.802c.014-.013.02-.03.032-.045l2.744-2.741 2.117-1.919V12.082a8.153 8.153 0 0 0 .876-.156v9.96l-9.179 9.099H1.596z" fill="#879f4a"/><path d="M16.18 30.985a1.973 1.973 0 0 1-1.396-.577l-.174-.173h1.004v-.005c.044.004.085.01.132.01.178 0 .335-.027.46-.068l.033-.009c.006-.002.014-.003.02-.006l.007-.007c.005.012.013.021.017.033l.08-.075c.183-.073.355-.181.5-.326l.27-.27c.004-.005.01-.007.014-.011l.774-.772c.008-.008.013-.017.02-.025l1.647-1.644 4.205-3.972a1.93 1.93 0 0 0 .46-.667c.139-.166.22-.361.244-.564.023-.093.04-.189.04-.29v-1.462l.304.303a1.95 1.95 0 0 1 0 2.775l-7.267 7.226a1.973 1.973 0 0 1-1.395.576z" fill="#879f4a"/></g></svg>