<svg xmlns="http://www.w3.org/2000/svg" width="38.75" height="38.75" viewBox="0 0 38.75 38.75"><g transform="matrix(1.25 0 0 -1.25 0 38.75)"><flowRoot xml:space="preserve" style="line-height:125%" font-style="normal" font-weight="400" font-size="40" font-family="sans-serif" letter-spacing="0" word-spacing="0" fill="#000" fill-opacity="1" stroke="none" stroke-width="1" stroke-linecap="butt" stroke-linejoin="miter" stroke-opacity="1"><flowRegion><path d="M-41.896-3.512h30.317v47.023h-30.317z"/></flowRegion><flowPara/></flowRoot><path fill="#cbdff0" d="M8.482 22.488l8.394 8.003 7.66-8.03-8.394-8.003z"/><path fill="#e4ebfa" d="M5.909 30.223h10.5V7.929h-10.5z"/><path fill="#e4ebfa" d="M6.009 21.875h19V.98h-19z"/><path d="M40.96 33.208a8.153 8.153 0 0 0 .46-.084v.084h-.46zm-24.932-2.757v-7.385c0-.874.705-1.58 1.58-1.58h7.226v.827h-7.123a.855.855 0 0 0-.856.856v7.282h-.827z" fill="#2a6291"/><path fill="#cbdff0" d="M.909 30.373h5.1V.981h-5.1z"/><path d="M1.71 30.884c-.875 0-1.58-.703-1.58-1.578V1.774C.13.9.835.196 1.71.196h14.707a8.153 8.151 0 0 0-.363.825H1.813a.856.856 0 0 0-.857.858v27.393c0 .474.382.856.857.856h13.212v.756H1.709zm22.935-8.968v-9.93a8.153 8.151 0 0 0 .876-.155v9.958l-.128.127h-.748z" fill="#2a6291"/><path d="M25.516 16.475a8.153 8.151 0 0 0-.827-.362V1.874a.856.856 0 0 0-.856-.858H14.31V.192h9.626c.875 0 1.58.703 1.58 1.577v14.706z" fill="#2a6291"/><path fill="#2a6291" d="M24.644 13.159h.778V1.562h-.778zM5.354 30.195h.881V.928h-.881zM16.292 30.888a1.973 1.973 0 0 1-1.395-.576l-.174-.173h1.004v-.005c.045.003.086.01.133.01.177 0 .334-.027.46-.069l.032-.008c.006-.003.014-.004.02-.006l.008-.008c.004.012.012.022.017.034l.079-.075c.183-.074.355-.182.5-.327l.27-.27.014-.01.774-.772c.008-.008.013-.017.02-.025l1.647-1.644 4.205-3.97c.208-.197.36-.425.46-.667.139-.166.22-.362.244-.564.023-.093.04-.189.04-.29v-1.462l.304.303a1.95 1.95 0 0 1 0 2.774l-7.266 7.224a1.973 1.973 0 0 1-1.396.576z"/><path d="M13.63 30.51v.375l1.24-.001c1.06 0 1.23-.002 1.174-.01a2.016 2.016 0 0 1-.707-.23 2.128 2.128 0 0 1-.494-.382l-.128-.127h-1.084v.375z" fill="#2a6291"/><path d="M13.632 30.51v.188a51.26 51.26 0 0 0 0-.188zM10.983 30.507v.376h2.644v-.753h-2.644v.377z" fill="#2a6291"/><path d="M13.632 30.51v.188a51.26 51.26 0 0 0 0-.188zM24.666 18.67v1.353l.21.205c.31.305.49.593.594.95.041.145.043.088.045-1.856l.001-2.006h-.85v1.354z" fill="#2a6291"/></g></svg>