<svg xmlns="http://www.w3.org/2000/svg" width="38.75" height="38.75" viewBox="0 0 38.75 38.75"><g transform="matrix(1.25 0 0 -1.25 0 38.75)"><flowRoot xml:space="preserve" style="line-height:125%" font-style="normal" font-weight="400" font-size="40" font-family="sans-serif" letter-spacing="0" word-spacing="0" fill="#000" fill-opacity="1" stroke="none" stroke-width="1" stroke-linecap="butt" stroke-linejoin="miter" stroke-opacity="1"><flowRegion><path d="M-41.896-3.512h30.317v47.023h-30.317z"/></flowRegion><flowPara/></flowRoot><path fill="#cbdff0" d="M8.482 22.488l8.394 8.003 7.66-8.03-8.394-8.003z"/><path fill="#e4ebfa" d="M5.909 30.223h10.5V7.929h-10.5z"/><path d="M6.01 21.875V.98h8.3v.036h1.537a8.225 8.225 0 0 0 .012-.036h.003a8.225 8.225 0 0 1-.551 2.93 8.225 8.225 0 0 1 8.225 8.226 8.225 8.225 0 0 1 1.473-.145 8.225 8.225 0 0 0-.32.064v4.058a8.153 8.151 0 0 0 .32.137v5.625h-19z" fill="#e4ebfa"/><path d="M16.028 30.45v-7.384c0-.875.705-1.58 1.58-1.58h7.226v.826h-7.123a.855.855 0 0 0-.856.857v7.281h-.827z" fill="#2a6291"/><path fill="#cbdff0" d="M.909 30.373h5.1V.981h-5.1z"/><path d="M1.71 30.884c-.875 0-1.58-.703-1.58-1.578V1.773C.13.9.835.197 1.71.197h14.492a8.225 8.225 0 0 1-.358.825H1.813a.855.855 0 0 0-.857.856v27.394c0 .474.382.856.857.856h13.212v.756H1.709zm22.935-8.968V12.05a8.225 8.225 0 0 1 .877-.17v9.91l-.128.126h-.749z" fill="#2a6291"/><path d="M24.644 13.16v-1.116a8.225 8.225 0 0 1 .778-.149v1.264h-.778zM5.354 30.195h.881V.928h-.881zM16.292 30.888a1.973 1.973 0 0 1-1.395-.576l-.174-.173h1.004v-.005c.045.003.086.01.133.01.177 0 .334-.027.46-.069l.032-.008c.006-.003.014-.004.02-.006l.008-.008c.004.012.012.022.017.034l.079-.075c.183-.074.355-.182.5-.327l.27-.27.014-.01.774-.772c.008-.008.013-.017.02-.025l1.647-1.644 4.205-3.97c.208-.197.36-.425.46-.667.139-.166.22-.362.244-.564.023-.093.04-.189.04-.29v-1.462l.304.303a1.95 1.95 0 0 1 0 2.774l-7.266 7.224a1.973 1.973 0 0 1-1.396.576z" fill="#2a6291"/><path d="M13.63 30.51v.375l1.24-.001c1.06 0 1.23-.002 1.174-.01a2.016 2.016 0 0 1-.707-.23 2.128 2.128 0 0 1-.494-.382l-.128-.127h-1.084v.375z" fill="#2a6291"/><path d="M13.632 30.51v.188a51.26 51.26 0 0 0 0-.188zM10.983 30.507v.376h2.644v-.753h-2.644v.377z" fill="#2a6291"/><path d="M13.632 30.51v.188a51.26 51.26 0 0 0 0-.188zM24.666 18.67v1.353l.21.205c.31.305.49.593.594.95.041.145.043.088.045-1.856l.001-2.006h-.85v1.354z" fill="#2a6291"/><g transform="matrix(1.0246 0 0 -1.0246 -12.655 -6.56)" fill="#3b588a" stroke="#fff" stroke-linecap="square" stroke-linejoin="round" stroke-miterlimit="0"><circle r="1.099" cy="-12.746" cx="33.278" stroke-width=".349"/><circle r="1.145" cy="-8.627" cx="41.26" stroke-width=".364"/><circle r="1.481" cy="-11.773" cx="38.007" stroke-width=".39"/><circle r="1.801" cy="-9.21" cx="31.484" stroke-width=".332"/><circle r="2.125" cy="-9.546" cx="39.209" stroke-width=".392"/><circle r="2.125" cy="-10.288" cx="33.482" stroke-width=".392"/><circle r="2.125" cy="-12.233" cx="35.603" stroke-width=".392"/><circle r="1.145" cy="-8.574" cx="33.605" stroke-width=".364"/><circle r="2.594" cy="-10.023" cx="36.292" stroke-width=".398"/></g></g></svg>