<svg xmlns="http://www.w3.org/2000/svg" width="38.75" height="38.75" viewBox="0 0 38.75 38.75"><g transform="matrix(1.25 0 0 -1.25 0 38.75)"><flowRoot xml:space="preserve" style="line-height:125%" font-style="normal" font-weight="400" font-size="40" font-family="sans-serif" letter-spacing="0" word-spacing="0" fill="#000" fill-opacity="1" stroke="none" stroke-width="1" stroke-linecap="butt" stroke-linejoin="miter" stroke-opacity="1"><flowRegion><path d="M-41.896-3.512h30.317v47.023h-30.317z"/></flowRegion><flowPara/></flowRoot><path fill="#fff" d="M16.258 30.29l8.61-8.028-4.034-4.509-8.61 8.029z"/><path d="M.786 23.186V.669h15.27a8.153 8.202 0 0 1-.626 3.134 8.153 8.202 0 0 1 6.012 7.913 8.222 8.222 0 0 1 2.261.32 8.222 8.222 0 0 1 1.056-.077v11.227H.786z" fill="#fff"/><path d="M6.21 14.944a.93.93 0 0 1-.565-.183L.451 10.725a7.261 7.307 0 0 0 .326-1.3l4.88 3.791a.93.93 0 0 0 .564.183c.204.001.409-.06.566-.18l5.444-4.164.985.784-6.44 4.925a.932.932 0 0 1-.566.18zM.83 7.547a7.261 7.307 0 0 0-.738-2.53l.477-.365a7.261 7.307 0 0 1 .314 2.099 7.261 7.307 0 0 1-.053.796z" fill="#a095c2"/><path fill="#fff" d="M.708 30.343h15.683v-8.672H.708z"/><path d="M19.556 16.242a.888.888 0 0 1-.554-.189l-7.716-6.275.966-.744 6.843 5.57a.886.886 0 0 0 .555.187c.2 0 .402-.061.556-.185l3.235-2.59a8.222 8.222 0 0 1 .184.006 8.222 8.222 0 0 1 1.32-.117c.017.08.034.158.053.237l-4.886 3.916a.888.888 0 0 1-.556.184z" fill="#a095c2"/><path d="M1.623 30.953a1.58 1.58 0 0 1-1.58-1.587V1.66C.044.78.75.073 1.624.073H16.32a8.222 8.222 0 0 1-.362.832H1.727a.857.857 0 0 0-.857.86v27.566c0 .477.382.861.857.861h14.112l.003-.003.036.003c.108 0 .205-.016.295-.037a.956.956 0 0 0 .5-.24c.015-.01.032-.02.046-.034l1.322-1.304c.029-.025.061-.045.089-.072l.72-.725.816-.807c.014-.013.02-.03.032-.045l2.744-2.758 2.117-1.93V11.968a8.222 8.222 0 0 1 .875-.148v9.983l-9.178 9.151H1.623z" fill="#a095c2"/><path d="M16.206 30.954a1.967 1.967 0 0 1-1.395-.58l-.174-.174h1.004v-.005c.045.003.086.01.133.01.177 0 .334-.028.46-.07.01-.001.021-.005.032-.008l.02-.006.008-.007c.004.012.012.021.017.033l.079-.075c.183-.074.355-.183.5-.329l.27-.271.014-.011.774-.777c.008-.007.013-.016.02-.025l1.647-1.654 4.205-3.996c.208-.197.36-.426.46-.67.139-.167.22-.364.244-.568.023-.093.04-.19.04-.291v-1.471l.304.305a1.97 1.97 0 0 1 0 2.79l-7.266 7.27c-.387.387-.892.58-1.396.58z" fill="#a095c2"/><ellipse ry="2.527" rx="2.511" transform="scale(1 -1)" cy="-22.038" cx="8.291" fill="#fff" stroke="#a095c2" stroke-width="1.187" stroke-linecap="square" stroke-linejoin="round" stroke-miterlimit="0"/><g transform="matrix(1 0 0 -1 -.023 -.046)" stroke-miterlimit="10" fill="none" stroke="#4177c7" stroke-width="1.145"><circle r="2.426" cy="-4.188" cx="24.42"/><circle r="1.378" cy="-4.188" cx="29.047"/><circle r="1.378" cy="-4.188" cx="19.773"/></g></g></svg>