<svg xmlns="http://www.w3.org/2000/svg" width="38.75" height="38.75" viewBox="0 0 38.75 38.75"><g transform="matrix(1.25 0 0 -1.25 0 38.75)"><flowRoot xml:space="preserve" style="line-height:125%" font-style="normal" font-weight="400" font-size="40" font-family="sans-serif" letter-spacing="0" word-spacing="0" fill="#000" fill-opacity="1" stroke="none" stroke-width="1" stroke-linecap="butt" stroke-linejoin="miter" stroke-opacity="1"><flowRegion><path d="M-41.896-3.512h30.317v47.023h-30.317z"/></flowRegion><flowPara/></flowRoot><g transform="matrix(1.0246 0 0 -1.0246 -12.673 -6.871)" fill="#3b588a" stroke="#fff" stroke-linecap="square" stroke-linejoin="round" stroke-miterlimit="0"><circle r="1.099" cy="-12.746" cx="33.278" stroke-width=".349"/><circle r="1.145" cy="-8.627" cx="41.26" stroke-width=".364"/><circle r="1.481" cy="-11.773" cx="38.007" stroke-width=".39"/><circle r="1.801" cy="-9.21" cx="31.484" stroke-width=".332"/><circle r="2.125" cy="-9.546" cx="39.209" stroke-width=".392"/><circle r="2.125" cy="-10.288" cx="33.482" stroke-width=".392"/><circle r="2.125" cy="-12.233" cx="35.603" stroke-width=".392"/><circle r="1.145" cy="-8.574" cx="33.605" stroke-width=".364"/><circle r="2.594" cy="-10.023" cx="36.292" stroke-width=".398"/></g><g transform="translate(27.61 -.518)"><path fill="#fff" d="M-11.375 30.84l8.61-8.029-4.035-4.508-8.61 8.028z"/><path d="M-26.848 23.736V1.219h15.271a8.153 8.202 0 0 0-.626 3.135 8.153 8.202 0 0 0 8.153 8.202 8.153 8.202 0 0 0 1.176-.096v11.276h-23.974z" fill="#fff"/><path d="M-21.424 15.494a.93.93 0 0 1-.564-.183l-5.194-4.036a7.261 7.307 0 0 0 .325-1.3l4.88 3.791a.93.93 0 0 0 .564.184c.205 0 .41-.06.566-.18l5.444-4.165.986.784-6.44 4.925a.932.932 0 0 1-.567.18zm-5.38-7.397a7.261 7.307 0 0 0-.738-2.53l.477-.365a7.261 7.307 0 0 1 .315 2.099 7.261 7.307 0 0 1-.053.796z" fill="#a095c2"/><path fill="#fff" d="M-26.926 30.893h15.683v-8.672h-15.683z"/><path d="M-8.078 16.793a.888.888 0 0 1-.554-.19l-7.716-6.274.966-.744 6.844 5.569a.886.886 0 0 0 .554.187c.201.001.402-.06.556-.184l3.254-2.606c.05-.002.1-.01.151-.013a8.15 8.15 0 0 1 .013 0 8.15 8.15 0 0 1 1.314-.117c.018.09.038.182.06.272l-4.885 3.915a.888.888 0 0 1-.557.185z" fill="#a095c2"/><path d="M-26.01 31.504a1.58 1.58 0 0 1-1.58-1.589V2.212c0-.88.705-1.589 1.58-1.589h14.707a8.153 8.202 0 0 0-.362.831h-14.242a.858.858 0 0 0-.857.862v27.565c0 .477.383.862.857.862h14.113l.003-.003c.012 0 .023.003.036.003.108 0 .205-.016.295-.038a.957.957 0 0 0 .5-.24c.015-.01.031-.02.045-.034l1.323-1.304c.029-.025.06-.045.087-.072l.721-.725.816-.807c.014-.013.02-.03.033-.045l2.744-2.758 2.116-1.93V12.488a8.153 8.202 0 0 0 .877-.156v10.02l-9.18 9.153H-26.01z" fill="#a095c2"/><path d="M-11.427 31.504a1.967 1.967 0 0 1-1.396-.58l-.174-.174h1.005v-.005c.044.003.085.01.132.01.178 0 .335-.027.46-.069l.032-.009c.006-.002.015-.003.02-.006.005-.003.004-.003.008-.007.005.012.013.021.017.033l.079-.075c.184-.074.356-.183.5-.329l.27-.271.014-.011.774-.776c.008-.008.013-.017.02-.025l1.647-1.654 4.205-3.997c.208-.197.36-.426.46-.67.14-.167.221-.364.245-.568.023-.093.039-.19.039-.29v-1.472l.305.305a1.97 1.97 0 0 1 0 2.791l-7.267 7.27c-.387.386-.891.58-1.396.58z" fill="#a095c2"/><ellipse cx="-19.342" cy="-22.588" transform="scale(1 -1)" rx="2.511" ry="2.527" fill="#fff" stroke="#a095c2" stroke-width="1.187" stroke-linecap="square" stroke-linejoin="round" stroke-miterlimit="0"/></g></g></svg>