<svg xmlns="http://www.w3.org/2000/svg" width="38.75" height="38.75" viewBox="0 0 38.75 38.75"><g transform="matrix(1.25 0 0 -1.25 0 38.75)"><path fill="#fff" d="M16.326 30.216l8.609-7.98-4.035-4.482-8.609 7.98z"/><path d="M.853 23.154V.772h15.27a8.153 8.153 0 0 0-.626 3.116 8.153 8.153 0 0 0 8.153 8.153 8.153 8.153 0 0 0 1.177-.096v11.21H.853z" fill="#fff"/><path fill="#fff" d="M.949 30.484h15.683v-8.621H.949z"/><path d="M1.69 30.876a1.576 1.576 0 0 1-1.58-1.58V1.759C.11.884.816.18 1.69.18h14.708a8.153 8.153 0 0 0-.362.826H1.794a.856.856 0 0 0-.857.857v27.4c0 .475.383.857.857.857h14.112l.003-.003c.013 0 .024.003.036.003.108 0 .205-.015.295-.037a.96.96 0 0 0 .5-.238c.015-.012.032-.02.046-.035l1.322-1.296c.03-.025.06-.044.088-.072l.72-.72.817-.802c.014-.013.02-.03.032-.045l2.745-2.741 2.116-1.918V11.973a8.153 8.153 0 0 0 .876-.156v9.961l-9.179 9.098H1.69z" fill="#cd5151"/><path d="M16.273 30.876a1.973 1.973 0 0 1-1.395-.577l-.174-.173h1.004v-.005c.045.004.085.01.133.01.177 0 .334-.027.46-.068l.032-.009c.006-.002.014-.003.02-.006l.008-.007c.004.012.012.021.017.033l.079-.075c.183-.074.355-.181.5-.326l.27-.27.014-.011.774-.772c.008-.008.013-.017.02-.025l1.647-1.644 4.205-3.972a1.93 1.93 0 0 0 .46-.667c.139-.166.22-.361.244-.564.023-.093.04-.189.04-.29v-1.462l.304.303a1.95 1.95 0 0 1 0 2.775L17.67 30.3a1.973 1.973 0 0 1-1.396.576z" fill="#cd5151"/><flowRoot xml:space="preserve" style="line-height:125%" font-style="normal" font-weight="400" font-size="40" font-family="sans-serif" letter-spacing="0" word-spacing="0" fill="#000" fill-opacity="1" stroke="none" stroke-width="1" stroke-linecap="butt" stroke-linejoin="miter" stroke-opacity="1"><flowRegion><path d="M-41.896-3.512h30.317v47.023h-30.317z"/></flowRegion><flowPara/></flowRoot><path d="M8.19 14.55a.791.791 0 0 1 .348.046c.184.09.363.19.524.318.146.127.283.264.414.406.216.24.437.478.647.725.21.252.397.52.574.797.222.321.36.684.502 1.045.12.311.225.627.346.938.134.362.288.717.439 1.073.193.481.34.979.48 1.478.144.541.282 1.083.384 1.634.053.28.07.565.076.85 0 .036.003.153-.004.198-.003.02-.012.038-.019.058-.048.139-.107.27-.17.404-.023.042-.046.086-.071.128a1.67 1.67 0 0 1-.133.197c-.027.033-.055.057-.055.037 0-.047.138-.011.124-.054-.01-.034-.065-.027-.098-.04-.16-.063-.32-.123-.477-.194-.034-.021-.07-.038-.101-.062-.126-.096-.222-.286-.277-.43a2.197 2.197 0 0 1-.12-.625c-.01-.178-.007-.357-.006-.536l.001-.454a.502.502 0 0 1 .057-.296c.084-.206.177-.408.279-.606.063-.16.155-.305.241-.453l.046-.098c.02-.04.05-.076.073-.116.074-.123.145-.242.226-.36.275-.402.56-.796.845-1.192.157-.213.312-.43.496-.621.138-.152.302-.271.47-.387.172-.12.35-.231.517-.358.118-.089.235-.18.358-.263.11-.068.217-.14.326-.21.16-.092.29-.226.44-.329.114-.08.228-.159.338-.244.116-.085.05-.029-.03-.006.1.003.2-.014.3-.023.247-.004.495-.007.743-.02.104 0 .208-.022.311-.014.005 0 .018.005.013.005-.052.002-.073-.018-.127-.042-.024.016-.085-.1-.093-.097a.496.496 0 0 0 .003.091c.008.072-.018.137-.036.205 0-.057.1-.122.018-.075-.113.06-.239.089-.36.13-.198.064-.39.143-.594.194-.28.052-.567.069-.851.095a10.391 10.391 0 0 1-1.139.047c-.16-.03-.326-.045-.49-.06-.284-.016-.557-.119-.828-.202-.397-.125-.8-.232-1.198-.358-.248-.08-.5-.148-.748-.227a3.118 3.118 0 0 1-.502-.188c-.22-.1-.442-.194-.667-.283-.336-.124-.669-.254-1.007-.372.018-.054-.13-.017-.146-.068-.002-.009.025.008.026 0 0-.01-.104-.206-.113-.226-.061-.146-.094-.301-.131-.455-.017-.155-.1-.289-.153-.432.003.02-.017-.071-.013-.054a.264.264 0 0 1-.006.181c.348-.513-.377-1.006-.725-.493a.698.698 0 0 0-.068.694c.042.103.099.197.113.31.051.213.1.428.193.629.175.36.327.612.733.74.327.116.65.242.976.362.21.083.42.17.625.265.196.089.394.17.602.227.248.078.5.146.747.226.4.126.804.235 1.204.36.329.1.66.217 1.007.237.19.017.378.047.568.064.145 0 .29 0 .435-.002.263-.007.525-.024.786-.049.33-.03.663-.05.987-.119.224-.058.44-.139.659-.213.185-.063.376-.112.543-.217.169-.108.31-.241.364-.441.041-.155.078-.31.065-.472-.012-.245-.056-.476-.25-.647-.054-.033-.105-.071-.162-.097-.192-.086-.415-.04-.616-.035-.258.014-.517.013-.775.023-.081.007-.162.023-.242.02a.751.751 0 0 0-.486.188c-.1.077-.203.148-.306.22-.138.1-.264.214-.407.308-.117.074-.232.15-.35.225-.135.092-.264.19-.395.289-.156.12-.324.221-.484.334-.218.15-.428.31-.608.505a6.83 6.83 0 0 0-.573.714c-.289.403-.58.804-.86 1.213-.087.13-.167.26-.247.395-.035.058-.114.168-.13.232-.091.16-.192.316-.26.49-.114.22-.218.445-.311.675-.08.202-.139.407-.122.626l-.002.451c-.001.203-.003.407.01.61.024.305.07.61.185.896.028.062.052.126.083.186.164.326.414.6.743.764.182.082.367.16.556.225.08.028.157.063.24.075.097.015.196.019.293.008.054-.006.103-.038.155-.056.039-.025.08-.046.117-.073.232-.171.37-.434.504-.681.154-.333.303-.675.274-1.05a6.029 6.029 0 0 0-.09-.99 22.803 22.803 0 0 0-.402-1.712c-.15-.535-.309-1.068-.517-1.584-.148-.348-.298-.695-.43-1.05-.122-.31-.225-.627-.345-.938-.055-.14-.106-.28-.164-.418a5.323 5.323 0 0 0-.416-.78 8.79 8.79 0 0 0-.645-.892c-.219-.256-.447-.504-.673-.754a5.863 5.863 0 0 0-.516-.5 3.461 3.461 0 0 0-.78-.456 1.665 1.665 0 0 0-.632-.093c-.62 0-.62.877 0 .877z" fill="#cd5151"/><g transform="matrix(1 0 0 -1 -.023 .21)" stroke-miterlimit="10" fill="none" stroke="#4177c7" stroke-width="1.145"><circle r="2.426" cy="-4.188" cx="24.42"/><circle r="1.378" cy="-4.188" cx="29.047"/><circle r="1.378" cy="-4.188" cx="19.773"/></g></g></svg>