<svg xmlns="http://www.w3.org/2000/svg" width="38.75" height="38.75" viewBox="0 0 38.75 38.75"><g transform="matrix(1.25 0 0 -1.25 0 38.75)"><flowRoot xml:space="preserve" style="line-height:125%" font-style="normal" font-weight="400" font-size="40" font-family="sans-serif" letter-spacing="0" word-spacing="0" fill="#000" fill-opacity="1" stroke="none" stroke-width="1" stroke-linecap="butt" stroke-linejoin="miter" stroke-opacity="1"><flowRegion><path d="M-41.896-3.512h30.317v47.023h-30.317z"/></flowRegion><flowPara/></flowRoot><path fill="#fff" d="M16.405 30.18l8.61-7.981-4.035-4.482-8.609 7.98z"/><path d="M.933 23.118V.735h15.27a8.153 8.153 0 0 0-.626 3.116 8.153 8.153 0 0 0 8.154 8.153 8.153 8.153 0 0 0 1.176-.096v11.21H.933z" fill="#fff"/><path fill="#fff" d="M.873 30.559h15.683v-8.621H.873zM12.074 12.404h12.7V.704h-12.7z"/><path d="M1.77 30.84a1.576 1.576 0 0 1-1.58-1.58V1.722C.19.847.896.142 1.77.142h14.708a8.153 8.153 0 0 0-.362.827H1.874a.856.856 0 0 0-.857.857v27.4c0 .474.383.857.857.857h14.112l.003-.003c.013 0 .024.003.036.003.108 0 .205-.016.295-.037a.96.96 0 0 0 .5-.239c.015-.011.032-.02.046-.034l1.322-1.297c.03-.024.06-.044.088-.071l.72-.72.817-.802c.014-.014.02-.031.032-.046l2.745-2.74 2.116-1.92V11.937a8.153 8.153 0 0 0 .876-.156v9.961l-9.179 9.098H1.77z" fill="#cd5151"/><path d="M16.353 30.84a1.973 1.973 0 0 1-1.395-.577l-.174-.173h1.004v-.005c.045.003.086.01.133.01.177 0 .334-.027.46-.069l.032-.008c.006-.003.014-.004.02-.006l.008-.008c.004.012.012.022.017.034l.079-.075c.183-.074.355-.182.5-.327l.27-.27.014-.011.774-.772c.008-.007.013-.016.02-.024l1.647-1.644 4.205-3.973a1.93 1.93 0 0 0 .46-.666c.14-.166.221-.362.244-.565.023-.092.04-.188.04-.289v-1.463l.304.304a1.95 1.95 0 0 1 0 2.774l-7.266 7.226a1.973 1.973 0 0 1-1.396.576zM25.577 16.426a8.153 8.153 0 0 0-.826-.363V1.821a.856.856 0 0 0-.857-.858h-9.523V.138h9.626c.875 0 1.58.704 1.58 1.578v14.71z" fill="#cd5151"/><path fill="#cd5151" d="M24.706 13.109h.778v-11.6h-.778zM8.197 13.755a.82.82 0 0 1 .361.047c.192.093.378.197.545.33.151.132.293.274.43.422.224.25.454.497.671.753.218.262.413.54.596.827.231.335.375.711.523 1.086.123.324.232.652.359.974.14.377.299.745.456 1.115.2.5.353 1.016.498 1.535.15.562.293 1.125.399 1.697.055.291.072.587.078.882 0 .038.004.16-.003.206-.004.021-.013.04-.02.06-.05.145-.11.282-.176.42-.025.044-.049.09-.075.133-.037.063-.09.148-.138.205-.028.034-.057.059-.056.038-.001-.049.143-.011.129-.056-.012-.035-.068-.028-.102-.041-.167-.066-.333-.128-.496-.202-.035-.022-.072-.04-.105-.065-.131-.1-.23-.296-.287-.446a2.281 2.281 0 0 1-.125-.649c-.01-.185-.008-.371-.007-.557l.002-.47a.522.522 0 0 1 .06-.308 7.88 7.88 0 0 1 .289-.63c.065-.167.16-.317.25-.47.016-.034.03-.069.047-.102.022-.042.052-.08.077-.12.076-.128.15-.252.234-.375.286-.417.583-.827.878-1.237.162-.222.323-.448.515-.646.144-.158.314-.281.488-.402.179-.124.363-.24.537-.371.123-.093.245-.186.372-.273.114-.071.225-.146.338-.218.166-.097.3-.235.458-.342.118-.083.236-.165.35-.253.12-.089.052-.03-.03-.007.103.003.207-.015.31-.024.258-.005.516-.008.773-.02.108 0 .215-.023.323-.015.005 0 .018.005.014.005-.055.002-.077-.019-.133-.043-.025.015-.088-.105-.096-.1a.516.516 0 0 0 .003.094c.008.074-.019.141-.038.212.001-.06.104-.127.02-.078-.118.062-.249.092-.374.135-.206.067-.407.149-.617.201-.292.055-.59.072-.885.1a10.792 10.792 0 0 1-1.182.049c-.167-.033-.34-.048-.509-.064-.296-.016-.58-.122-.86-.21-.413-.129-.832-.24-1.245-.37-.257-.084-.518-.155-.776-.236a3.239 3.239 0 0 1-.522-.196c-.228-.104-.46-.201-.693-.294-.348-.128-.695-.263-1.045-.386.018-.056-.135-.018-.152-.071-.003-.009.026.009.026 0 .001-.01-.107-.213-.117-.234-.063-.152-.098-.313-.136-.473-.018-.161-.104-.3-.158-.45.002.023-.019-.073-.014-.054a.275.275 0 0 1-.007.187c.362-.532-.39-1.044-.753-.512a.725.725 0 0 0-.07.721c.044.107.103.205.117.322.054.221.105.445.2.653.183.375.34.636.762.77.34.119.675.25 1.013.375.22.086.436.177.65.275.203.092.41.177.625.235.258.081.519.153.776.236.415.13.835.244 1.25.373.342.105.687.226 1.046.246.197.018.393.05.59.067.15 0 .302 0 .453-.003.272-.007.544-.024.815-.05.343-.032.69-.051 1.026-.123.233-.06.457-.145.684-.222.192-.066.39-.116.565-.225.174-.112.32-.25.377-.459.043-.16.082-.322.068-.49-.013-.254-.059-.494-.26-.672-.056-.033-.109-.074-.168-.1-.2-.09-.43-.041-.64-.036-.268.014-.537.013-.805.023-.084.008-.168.024-.251.02a.78.78 0 0 0-.505.196c-.103.08-.21.154-.317.23-.144.102-.275.222-.423.318-.122.078-.242.158-.364.235-.14.095-.275.197-.41.3-.163.123-.337.23-.503.347a3.688 3.688 0 0 0-.631.524 7.093 7.093 0 0 0-.595.742c-.3.418-.602.835-.894 1.26-.09.135-.173.27-.256.41-.036.06-.119.175-.135.24-.095.168-.2.33-.271.51-.118.229-.226.462-.323.7-.082.21-.144.423-.127.65 0 .157 0 .313-.002.47 0 .21-.003.421.01.632.026.317.074.634.194.931.028.065.053.13.085.194.17.338.43.623.772.793.19.085.38.167.577.234.083.028.164.065.25.078.1.016.203.019.304.008.057-.006.107-.04.161-.059.04-.025.083-.047.122-.075.24-.178.384-.451.523-.708.16-.345.315-.7.285-1.09a6.265 6.265 0 0 0-.094-1.028c-.111-.6-.26-1.19-.417-1.778a15.728 15.728 0 0 0-.537-1.646c-.154-.361-.31-.722-.447-1.09-.126-.322-.234-.651-.359-.974-.056-.145-.11-.291-.17-.434a5.528 5.528 0 0 0-.432-.81 9.13 9.13 0 0 0-.67-.927c-.227-.266-.464-.523-.698-.783a6.089 6.089 0 0 0-.536-.519 3.595 3.595 0 0 0-.811-.474 1.73 1.73 0 0 0-.656-.097c-.644 0-.644.911 0 .911z"/></g></svg>