<svg xmlns="http://www.w3.org/2000/svg" width="38.75" height="38.75" viewBox="0 0 38.75 38.75"><g transform="matrix(1.25 0 0 -1.25 0 38.75)"><flowRoot xml:space="preserve" style="line-height:125%" font-style="normal" font-weight="400" font-size="40" font-family="sans-serif" letter-spacing="0" word-spacing="0" fill="#000" fill-opacity="1" stroke="none" stroke-width="1" stroke-linecap="butt" stroke-linejoin="miter" stroke-opacity="1"><flowRegion><path d="M-41.896-3.512h30.317v47.023h-30.317z"/></flowRegion><flowPara/></flowRoot><g transform="matrix(1.0246 0 0 -1.0246 -12.673 -6.871)" fill="#3b588a" stroke="#fff" stroke-linecap="square" stroke-linejoin="round" stroke-miterlimit="0"><circle r="1.099" cy="-12.746" cx="33.278" stroke-width=".349"/><circle r="1.145" cy="-8.627" cx="41.26" stroke-width=".364"/><circle r="1.481" cy="-11.773" cx="38.007" stroke-width=".39"/><circle r="1.801" cy="-9.21" cx="31.484" stroke-width=".332"/><circle r="2.125" cy="-9.546" cx="39.209" stroke-width=".392"/><circle r="2.125" cy="-10.288" cx="33.482" stroke-width=".392"/><circle r="2.125" cy="-12.233" cx="35.603" stroke-width=".392"/><circle r="1.145" cy="-8.574" cx="33.605" stroke-width=".364"/><circle r="2.594" cy="-10.023" cx="36.292" stroke-width=".398"/></g><path fill="#fff" d="M16.224 30.328l8.61-7.98-4.034-4.481-8.61 7.98z"/><path d="M.751 23.266V.884h15.272A8.153 8.153 0 0 0 15.396 4a8.153 8.153 0 0 0 8.153 8.153 8.153 8.153 0 0 0 1.177-.096v11.21H.751z" fill="#fff"/><path fill="#fff" d="M.744 30.654h15.683v-8.62H.744z"/><path d="M1.589 30.987a1.576 1.576 0 0 1-1.58-1.579V1.871C.01.996.715.29 1.59.29h14.708a8.153 8.153 0 0 0-.362.827H1.693a.856.856 0 0 0-.857.857v27.4c0 .474.382.856.857.856h14.112l.003-.003c.013 0 .024.003.036.003.108 0 .205-.016.295-.037a.96.96 0 0 0 .5-.239c.015-.01.032-.02.046-.034l1.322-1.296c.03-.025.06-.045.088-.072l.72-.72.817-.802c.014-.014.02-.03.032-.045l2.745-2.741 2.116-1.919V12.085a8.153 8.153 0 0 0 .876-.156v9.96l-9.179 9.098H1.59z" fill="#cd5151"/><path d="M16.172 30.988a1.973 1.973 0 0 1-1.395-.577l-.174-.173h1.004v-.005c.045.003.085.01.133.01.177 0 .334-.027.46-.068l.032-.009.02-.006.008-.007c.004.011.012.02.017.033l.078-.075c.184-.074.356-.182.501-.327l.27-.27.014-.01.774-.772c.008-.008.013-.017.02-.025l1.647-1.644 4.205-3.972a1.93 1.93 0 0 0 .46-.667c.139-.166.22-.361.244-.564.023-.093.04-.189.04-.29v-1.462l.304.303a1.95 1.95 0 0 1 0 2.775l-7.267 7.225a1.973 1.973 0 0 1-1.395.577zM8.33 14.294a.82.82 0 0 1 .362.047c.191.093.377.197.544.33.152.132.294.275.43.422.225.25.454.497.672.753.217.262.413.54.596.828.23.334.375.71.522 1.085.124.324.233.652.36.974.139.377.298.745.455 1.115.2.5.354 1.016.499 1.535.15.562.292 1.125.398 1.697.055.291.073.587.079.882 0 .038.004.16-.004.206-.003.021-.012.04-.02.06-.05.145-.11.282-.175.42-.025.044-.049.09-.075.133-.037.063-.09.148-.138.205-.028.034-.057.059-.056.038-.002-.049.143-.011.128-.056-.01-.035-.067-.028-.101-.041-.167-.066-.333-.128-.496-.202-.035-.022-.073-.04-.106-.065-.13-.1-.23-.296-.287-.446a2.281 2.281 0 0 1-.124-.649c-.01-.185-.008-.371-.007-.557l.002-.47a.522.522 0 0 1 .059-.308 7.88 7.88 0 0 1 .29-.63c.065-.166.16-.316.25-.47.015-.034.03-.069.047-.102.022-.042.052-.08.076-.12.076-.128.15-.252.234-.375.287-.417.583-.827.878-1.237.163-.222.324-.448.516-.646.143-.158.313-.281.487-.401.18-.125.363-.24.537-.372.124-.093.245-.186.373-.273.113-.071.225-.146.338-.218.165-.097.3-.235.458-.342.118-.083.236-.165.35-.253.12-.089.052-.03-.031-.007.104.003.207-.015.31-.024.259-.005.516-.008.774-.02.107 0 .215-.023.323-.015.005 0 .018.005.013.005-.054.002-.076-.019-.132-.043-.025.016-.089-.105-.096-.1a.516.516 0 0 0 .003.094c.008.074-.02.141-.038.212 0-.06.103-.127.019-.078-.118.062-.248.092-.374.135-.206.067-.406.149-.617.201-.291.055-.589.072-.884.1a10.792 10.792 0 0 1-1.183.049c-.166-.033-.339-.048-.508-.064-.296-.016-.58-.122-.86-.21-.414-.129-.832-.24-1.245-.37-.257-.084-.519-.155-.777-.236a3.239 3.239 0 0 1-.521-.196c-.228-.104-.46-.201-.693-.293-.349-.13-.695-.264-1.046-.387.018-.056-.135-.018-.151-.071-.003-.009.025.009.026 0 0-.01-.107-.213-.117-.234-.064-.152-.098-.313-.136-.473-.018-.161-.104-.3-.159-.449.003.022-.018-.074-.014-.055a.275.275 0 0 1-.006.187c.362-.532-.391-1.044-.753-.512a.725.725 0 0 0-.071.721c.045.107.103.205.117.322.054.222.105.445.201.653.182.375.34.636.762.77.34.119.675.25 1.013.375.219.086.436.177.65.275.203.092.41.177.625.235.258.082.518.153.776.236.415.13.835.244 1.25.373.341.105.686.226 1.046.246.197.018.392.05.59.067.15 0 .301 0 .452-.002.273-.008.545-.025.816-.05.343-.033.689-.052 1.026-.124.232-.06.456-.144.684-.222.192-.066.39-.116.564-.225.175-.112.322-.25.378-.459.042-.16.081-.322.068-.49-.013-.254-.059-.493-.26-.672-.056-.033-.109-.073-.169-.1-.2-.09-.43-.041-.64-.036-.268.014-.536.013-.805.024-.084.007-.167.023-.25.02a.78.78 0 0 0-.505.195c-.104.08-.211.154-.318.23-.144.102-.274.222-.423.318-.121.078-.241.158-.363.235-.14.095-.275.197-.41.3-.163.123-.337.23-.504.347a3.688 3.688 0 0 0-.63.524 7.093 7.093 0 0 0-.596.742c-.3.418-.602.835-.893 1.26-.09.135-.173.27-.257.41-.036.06-.118.175-.135.24-.094.168-.2.33-.27.51-.118.229-.226.462-.323.7-.083.21-.144.423-.127.65l-.002.47c0 .21-.003.422.01.632.026.317.073.634.193.931.029.065.054.13.086.194.17.338.43.623.772.793.189.085.38.167.577.234.082.028.164.065.25.078.1.016.203.019.304.008.056-.006.107-.04.16-.059.041-.025.084-.047.122-.075.241-.178.384-.451.524-.708.16-.345.315-.7.285-1.09a6.265 6.265 0 0 0-.094-1.028c-.111-.6-.26-1.19-.417-1.778a15.728 15.728 0 0 0-.538-1.646c-.153-.361-.31-.722-.446-1.09-.126-.322-.234-.651-.359-.974-.057-.145-.11-.291-.17-.434a5.528 5.528 0 0 0-.432-.81 9.13 9.13 0 0 0-.67-.927c-.227-.266-.465-.523-.699-.783a6.09 6.09 0 0 0-.536-.519 3.595 3.595 0 0 0-.81-.474 1.73 1.73 0 0 0-.656-.097c-.644 0-.644.911 0 .911z" fill="#cd5151"/></g></svg>