<svg xmlns="http://www.w3.org/2000/svg" width="38.75" height="38.75" viewBox="0 0 38.75 38.75"><g transform="matrix(1.25 0 0 -1.25 0 38.75)"><flowRoot xml:space="preserve" style="line-height:125%" font-style="normal" font-weight="400" font-size="40" font-family="sans-serif" letter-spacing="0" word-spacing="0" fill="#000" fill-opacity="1" stroke="none" stroke-width="1" stroke-linecap="butt" stroke-linejoin="miter" stroke-opacity="1"><flowRegion><path d="M-41.896-3.512h30.317v47.023h-30.317z"/></flowRegion><flowPara/></flowRoot><g transform="matrix(1.0246 0 0 -1.0246 -12.673 -6.871)" fill="#3b588a" stroke="#fff" stroke-linecap="square" stroke-linejoin="round" stroke-miterlimit="0"><circle r="1.099" cy="-12.746" cx="33.278" stroke-width=".349"/><circle r="1.145" cy="-8.627" cx="41.26" stroke-width=".364"/><circle r="1.481" cy="-11.773" cx="38.007" stroke-width=".39"/><circle r="1.801" cy="-9.21" cx="31.484" stroke-width=".332"/><circle r="2.125" cy="-9.546" cx="39.209" stroke-width=".392"/><circle r="2.125" cy="-10.288" cx="33.482" stroke-width=".392"/><circle r="2.125" cy="-12.233" cx="35.603" stroke-width=".392"/><circle r="1.145" cy="-8.574" cx="33.605" stroke-width=".364"/><circle r="2.594" cy="-10.023" cx="36.292" stroke-width=".398"/></g><path fill="#fff" d="M16.252 30.298l8.609-7.98-4.035-4.482-8.609 7.98z"/><path d="M.778 23.236V.853H16.05a8.153 8.153 0 0 0-.626 3.116 8.153 8.153 0 0 0 8.153 8.153 8.153 8.153 0 0 0 1.177-.095v11.209H.778z" fill="#fff"/><path fill="#fff" d="M.737 30.603H16.42v-8.62H.737z"/><path d="M1.616 30.957a1.576 1.576 0 0 1-1.58-1.579V1.84C.037.965.742.261 1.617.261h14.708a8.153 8.153 0 0 0-.362.826H1.72a.856.856 0 0 0-.857.857v27.4c0 .475.382.857.857.857h14.112l.003-.003.036.003c.108 0 .205-.016.295-.037a.96.96 0 0 0 .5-.239c.015-.01.032-.02.046-.034l1.322-1.296c.029-.025.06-.045.088-.072l.72-.72.817-.802c.014-.014.02-.031.032-.046l2.744-2.74 2.117-1.919V12.054a8.153 8.153 0 0 0 .876-.155v9.96l-9.179 9.098H1.616z" fill="#d59a21"/><path d="M16.2 30.958a1.973 1.973 0 0 1-1.396-.577l-.174-.173h1.004v-.005c.044.003.085.01.132.01.178 0 .335-.027.46-.068l.033-.009.02-.006.007-.007c.005.011.013.02.017.033l.08-.075c.183-.074.355-.182.5-.327l.27-.27.014-.01.774-.772c.008-.008.013-.017.02-.025l1.647-1.644 4.205-3.973a1.93 1.93 0 0 0 .46-.666c.139-.166.22-.362.244-.564.023-.093.04-.189.04-.29v-1.462l.304.303a1.95 1.95 0 0 1 0 2.775l-7.267 7.225a1.973 1.973 0 0 1-1.395.577z" fill="#d59a21"/><text transform="matrix(1 0 0 -1 27.61 -.518)" y="-14.122" x="-18.901" style="line-height:125%" font-weight="400" font-size="12.951" font-family="sans-serif" letter-spacing="0" word-spacing="0" fill="#d59a21"><tspan style="-inkscape-font-specification:'Arial Rounded MT Bold, '" y="-14.122" x="-18.901" font-size="13.502" font-family="Arial Rounded MT Bold">P</tspan></text></g></svg>