<svg xmlns="http://www.w3.org/2000/svg" width="38.75" height="38.75" viewBox="0 0 38.75 38.75"><g transform="matrix(1.25 0 0 -1.25 0 38.75)"><flowRoot xml:space="preserve" style="line-height:125%" font-style="normal" font-weight="400" font-size="40" font-family="sans-serif" letter-spacing="0" word-spacing="0" fill="#000" fill-opacity="1" stroke="none" stroke-width="1" stroke-linecap="butt" stroke-linejoin="miter" stroke-opacity="1"><flowRegion><path d="M-41.896-3.512h30.317v47.023h-30.317z"/></flowRegion><flowPara/></flowRoot><path fill="#fff" d="M16.405 30.18l8.61-7.981-4.035-4.482-8.609 7.98z"/><path d="M.933 23.118V.735h15.27a8.153 8.153 0 0 0-.626 3.116 8.153 8.153 0 0 0 8.154 8.153 8.153 8.153 0 0 0 1.176-.096v11.21H.933z" fill="#fff"/><path fill="#fff" d="M.873 30.559h15.683v-8.621H.873z"/><text y="-13.625" x="8.272" style="line-height:125%" transform="scale(1 -1)" font-weight="400" font-size="12.951" font-family="sans-serif" letter-spacing="0" word-spacing="0" fill="#d59a21"><tspan style="-inkscape-font-specification:'Arial Rounded MT Bold, '" y="-13.625" x="8.272" font-size="13.502" font-family="Arial Rounded MT Bold">P</tspan></text><path fill="#fff" d="M12.074 12.404h12.7V.704h-12.7z"/><path d="M1.77 30.84a1.576 1.576 0 0 1-1.58-1.58V1.722C.19.847.896.142 1.77.142h14.708a8.153 8.153 0 0 0-.362.827H1.874a.856.856 0 0 0-.857.857v27.4c0 .474.383.857.857.857h14.112l.003-.003c.013 0 .024.003.036.003.108 0 .205-.016.295-.037a.96.96 0 0 0 .5-.239c.015-.011.032-.02.046-.034l1.322-1.297c.03-.024.06-.044.088-.071l.72-.72.817-.802c.014-.014.02-.031.032-.046l2.745-2.74 2.116-1.92V11.937a8.153 8.153 0 0 0 .876-.156v9.961l-9.179 9.098H1.77z" fill="#d59a21"/><path d="M16.353 30.84a1.973 1.973 0 0 1-1.395-.577l-.174-.173h1.004v-.005c.045.003.086.01.133.01.177 0 .334-.027.46-.069l.032-.008c.006-.003.014-.004.02-.006l.008-.008c.004.012.012.022.017.034l.079-.075c.183-.074.355-.182.5-.327l.27-.27.014-.011.774-.772c.008-.007.013-.016.02-.024l1.647-1.644 4.205-3.973a1.93 1.93 0 0 0 .46-.666c.14-.166.221-.362.244-.565.023-.092.04-.188.04-.289v-1.463l.304.304a1.95 1.95 0 0 1 0 2.774l-7.266 7.226a1.973 1.973 0 0 1-1.396.576zM25.577 16.426a8.153 8.153 0 0 0-.826-.363V1.821a.856.856 0 0 0-.857-.858h-9.523V.138h9.626c.875 0 1.58.704 1.58 1.578v14.71z" fill="#d59a21"/><path fill="#d59a21" d="M24.706 13.109h.778v-11.6h-.778z"/></g></svg>