<svg xmlns="http://www.w3.org/2000/svg" width="38.75" height="38.75" viewBox="0 0 38.75 38.75"><g transform="matrix(1.25 0 0 -1.25 0 38.75)"><path fill="#fff" d="M16.326 30.216l8.609-7.98-4.035-4.482-8.609 7.98z"/><path d="M.853 23.154V.772h15.27a8.153 8.153 0 0 0-.626 3.116 8.153 8.153 0 0 0 8.153 8.153 8.153 8.153 0 0 0 1.177-.096v11.21H.853z" fill="#fff"/><path fill="#fff" d="M.749 30.684h15.683v-8.621H.749z"/><path d="M1.69 30.876a1.576 1.576 0 0 1-1.58-1.58V1.759C.11.884.816.18 1.69.18h14.708a8.153 8.153 0 0 0-.362.826H1.794a.856.856 0 0 0-.857.857v27.4c0 .475.383.857.857.857h14.112l.003-.003c.013 0 .024.003.036.003.108 0 .205-.015.295-.037a.96.96 0 0 0 .5-.238c.015-.012.032-.02.046-.035l1.322-1.296c.03-.025.06-.044.088-.072l.72-.72.817-.802c.014-.013.02-.03.032-.045l2.745-2.741 2.116-1.918V11.973a8.153 8.153 0 0 0 .876-.156v9.961l-9.179 9.098H1.69z" fill="#d59a21"/><path d="M16.273 30.876a1.973 1.973 0 0 1-1.395-.577l-.174-.173h1.004v-.005c.045.004.085.01.133.01.177 0 .334-.027.46-.068l.032-.009c.006-.002.014-.003.02-.006l.008-.007c.004.012.012.021.017.033l.079-.075c.183-.074.355-.181.5-.326l.27-.27.014-.011.774-.772c.008-.008.013-.017.02-.025l1.647-1.644 4.205-3.972a1.93 1.93 0 0 0 .46-.667c.139-.166.22-.361.244-.564.023-.093.04-.189.04-.29v-1.462l.304.303a1.95 1.95 0 0 1 0 2.775L17.67 30.3a1.973 1.973 0 0 1-1.396.576z" fill="#d59a21"/><flowRoot xml:space="preserve" style="line-height:125%" font-style="normal" font-weight="400" font-size="40" font-family="sans-serif" letter-spacing="0" word-spacing="0" fill="#000" fill-opacity="1" stroke="none" stroke-width="1" stroke-linecap="butt" stroke-linejoin="miter" stroke-opacity="1"><flowRegion><path d="M-41.896-3.512h30.317v47.023h-30.317z"/></flowRegion><flowPara/></flowRoot><text style="line-height:125%" x="8.329" y="-13.916" transform="scale(1 -1)" font-weight="400" font-size="12.469" font-family="sans-serif" letter-spacing="0" word-spacing="0" fill="#d59a21"><tspan x="8.329" y="-13.916" style="-inkscape-font-specification:'Arial Rounded MT Bold, '" font-size="13" font-family="Arial Rounded MT Bold">P</tspan></text><g transform="matrix(1 0 0 -1 -.013 .12)" stroke-miterlimit="10" fill="none" stroke="#4177c7" stroke-width="1.145"><circle r="2.426" cy="-4.188" cx="24.42"/><circle r="1.378" cy="-4.188" cx="29.047"/><circle r="1.378" cy="-4.188" cx="19.773"/></g></g></svg>