<svg xmlns="http://www.w3.org/2000/svg" width="38.75" height="38.75" viewBox="0 0 38.75 38.75"><g transform="matrix(1.25 0 0 -1.25 0 38.75)"><flowRoot xml:space="preserve" style="line-height:125%" font-style="normal" font-weight="400" font-size="40" font-family="sans-serif" letter-spacing="0" word-spacing="0" fill="#000" fill-opacity="1" stroke="none" stroke-width="1" stroke-linecap="butt" stroke-linejoin="miter" stroke-opacity="1"><flowRegion><path d="M-41.896-3.512h30.317v47.023h-30.317z"/></flowRegion><flowPara/></flowRoot><g transform="matrix(1.0246 0 0 -1.0246 -12.673 -6.871)" fill="#3b588a" stroke="#fff" stroke-linecap="square" stroke-linejoin="round" stroke-miterlimit="0"><circle r="1.099" cy="-12.746" cx="33.278" stroke-width=".349"/><circle r="1.145" cy="-8.627" cx="41.26" stroke-width=".364"/><circle r="1.481" cy="-11.773" cx="38.007" stroke-width=".39"/><circle r="1.801" cy="-9.21" cx="31.484" stroke-width=".332"/><circle r="2.125" cy="-9.546" cx="39.209" stroke-width=".392"/><circle r="2.125" cy="-10.288" cx="33.482" stroke-width=".392"/><circle r="2.125" cy="-12.233" cx="35.603" stroke-width=".392"/><circle r="1.145" cy="-8.574" cx="33.605" stroke-width=".364"/><circle r="2.594" cy="-10.023" cx="36.292" stroke-width=".398"/></g><path fill="#fff" d="M16.26 30.317l8.609-7.98-4.034-4.482-8.61 7.98z"/><path d="M.786 23.256V.873h15.272a8.153 8.153 0 0 0-.627 3.116 8.153 8.153 0 0 0 8.153 8.153 8.153 8.153 0 0 0 1.177-.096v11.21H.786z" fill="#fff"/><path fill="#fff" d="M.795 30.673h15.683v-8.62H.795z"/><path d="M1.624 30.977a1.576 1.576 0 0 1-1.58-1.579V1.86C.045.985.75.28 1.625.28h14.708a8.153 8.153 0 0 0-.362.827H1.728a.856.856 0 0 0-.857.857v27.4c0 .474.383.857.857.857H15.84l.003-.003c.013 0 .024.003.036.003.108 0 .205-.016.295-.037a.96.96 0 0 0 .5-.24c.015-.01.032-.02.046-.033l1.322-1.297c.03-.024.06-.044.088-.071l.72-.72.817-.802c.014-.014.02-.031.032-.046l2.745-2.74 2.116-1.92V12.075a8.153 8.153 0 0 0 .876-.156v9.961l-9.179 9.098H1.624z" fill="#557dbf"/><path d="M16.207 30.977a1.973 1.973 0 0 1-1.395-.576l-.174-.173h1.004v-.005c.045.003.086.01.133.01.177 0 .334-.028.46-.069l.032-.008c.006-.003.014-.004.02-.006l.008-.008c.004.012.012.021.017.033l.079-.074c.183-.074.355-.182.5-.327l.27-.27.014-.011.774-.772c.008-.007.013-.016.02-.024l1.647-1.644 4.205-3.973a1.93 1.93 0 0 0 .46-.666c.139-.166.22-.362.244-.565.023-.092.04-.188.04-.29v-1.462l.304.303a1.95 1.95 0 0 1 0 2.775l-7.266 7.226a1.973 1.973 0 0 1-1.396.576z" fill="#557dbf"/><text style="line-height:125%" x="-21.102" y="-14.059" transform="matrix(1 0 0 -1 27.61 -.518)" font-weight="400" font-size="12.951" font-family="sans-serif" letter-spacing="0" word-spacing="0" fill="#557dbf"><tspan x="-21.102" y="-14.059" style="-inkscape-font-specification:'Arial Rounded MT Bold, '" font-size="13.502" font-family="Arial Rounded MT Bold">W</tspan></text></g></svg>