<?xml version="1.0" encoding="UTF-8" standalone="no"?>
<!DOCTYPE svg PUBLIC "-//W3C//DTD SVG 1.0//EN" "http://www.w3.org/TR/2001/PR-SVG-20010719/DTD/svg10.dtd">
<svg width="34cm" height="33cm" viewBox="558 18 663 643" xmlns="http://www.w3.org/2000/svg" xmlns:xlink="http://www.w3.org/1999/xlink">
  <g>
    <rect style="fill: #add8e6" x="560" y="380" width="660" height="280"/>
    <rect style="fill: none; fill-opacity:0; stroke-width: 2; stroke: #000000" x="560" y="380" width="660" height="280"/>
  </g>
  <text font-size="12.8" style="fill: #000000;text-anchor:start;font-family:sans-serif;font-style:normal;font-weight:normal" x="580" y="400">
    <tspan x="580" y="400">desktop-client</tspan>
    <tspan x="580" y="416"></tspan>
  </text>
  <g>
    <rect style="fill: #90ee90" x="560" y="200" width="660" height="120"/>
    <rect style="fill: none; fill-opacity:0; stroke-width: 2; stroke: #000000" x="560" y="200" width="660" height="120"/>
    <text font-size="12.8" style="fill: #000000;text-anchor:middle;font-family:sans-serif;font-style:normal;font-weight:normal" x="890" y="263.9">
      <tspan x="890" y="263.9"></tspan>
    </text>
  </g>
  <g>
    <rect style="fill: #ffffff" x="580" y="560" width="218.102" height="54"/>
    <rect style="fill: none; fill-opacity:0; stroke-width: 2; stroke: #000000" x="580" y="560" width="218.102" height="54"/>
    <text font-size="12.8" style="fill: #000000;text-anchor:middle;font-family:sans-serif;font-style:normal;font-weight:normal" x="689.051" y="590.9">
      <tspan x="689.051" y="590.9">shell-extension</tspan>
    </text>
  </g>
  <g>
    <rect style="fill: #ffffff" x="760" y="400" width="218.102" height="54"/>
    <rect style="fill: none; fill-opacity:0; stroke-width: 2; stroke: #000000" x="760" y="400" width="218.102" height="54"/>
    <text font-size="12.8" style="fill: #000000;text-anchor:middle;font-family:sans-serif;font-style:normal;font-weight:normal" x="869.051" y="430.9">
      <tspan x="869.051" y="430.9">core</tspan>
    </text>
  </g>
  <g>
    <rect style="fill: #ffffff" x="960" y="560" width="218.102" height="54"/>
    <rect style="fill: none; fill-opacity:0; stroke-width: 2; stroke: #000000" x="960" y="560" width="218.102" height="54"/>
    <text font-size="12.8" style="fill: #000000;text-anchor:middle;font-family:sans-serif;font-style:normal;font-weight:normal" x="1069.05" y="590.9">
      <tspan x="1069.05" y="590.9">electron-ui</tspan>
    </text>
  </g>
  <polyline style="fill: none; fill-opacity:0; stroke-width: 2; stroke: #000000" points="814.525,454 814.525,506.497 689.051,506.497 689.051,558.993 "/>
  <polyline style="fill: none; fill-opacity:0; stroke-width: 2; stroke: #000000" points="923.576,454 923.576,506.497 1069.05,506.497 1069.05,558.993 "/>
  <text font-size="12.8" style="fill: #000000;text-anchor:start;font-family:sans-serif;font-style:normal;font-weight:normal" x="890" y="520">
    <tspan x="890" y="520"></tspan>
  </text>
  <text font-size="12.8" style="fill: #000000;text-anchor:start;font-family:sans-serif;font-style:normal;font-weight:normal" x="890" y="520">
    <tspan x="890" y="520"></tspan>
  </text>
  <text font-size="12.8" style="fill: #000000;text-anchor:start;font-family:sans-serif;font-style:normal;font-weight:normal" x="720" y="500">
    <tspan x="720" y="500">bourne-rpc</tspan>
  </text>
  <text font-size="12.8" style="fill: #000000;text-anchor:start;font-family:sans-serif;font-style:normal;font-weight:normal" x="980" y="500">
    <tspan x="980" y="500">bourne-rpc</tspan>
  </text>
  <polyline style="fill: none; fill-opacity:0; stroke-width: 2; stroke: #000000" points="720,300 720,350 869.051,350 869.051,400 "/>
  <text font-size="12.8" style="fill: #000000;text-anchor:start;font-family:sans-serif;font-style:normal;font-weight:normal" x="760" y="340">
    <tspan x="760" y="340">graphQl</tspan>
  </text>
  <g>
    <rect style="fill: #90ee90" x="940" y="20" width="280" height="120"/>
    <rect style="fill: none; fill-opacity:0; stroke-width: 2; stroke: #000000" x="940" y="20" width="280" height="120"/>
    <text font-size="12.8" style="fill: #000000;text-anchor:middle;font-family:sans-serif;font-style:normal;font-weight:normal" x="1080" y="83.9">
      <tspan x="1080" y="83.9">webdav</tspan>
    </text>
  </g>
  <g>
    <rect style="fill: #add8e6" x="560" y="20" width="280" height="120"/>
    <rect style="fill: none; fill-opacity:0; stroke-width: 2; stroke: #000000" x="560" y="20" width="280" height="120"/>
    <text font-size="12.8" style="fill: #000000;text-anchor:middle;font-family:sans-serif;font-style:normal;font-weight:normal" x="700" y="83.9">
      <tspan x="700" y="83.9">app-client</tspan>
    </text>
  </g>
  <polyline style="fill: none; fill-opacity:0; stroke-width: 2; stroke: #000000" points="938.991,80 937.991,80 842.009,80 841.009,80 "/>
  <polyline style="fill: none; fill-opacity:0; stroke-width: 2; stroke: #000000" points="1080,140 1080,190 780,190 780,240 "/>
  <polyline style="fill: none; fill-opacity:0; stroke-width: 2; stroke: #000000" points="700,140 700,190 720,190 720,240 "/>
  <text font-size="12.8" style="fill: #000000;text-anchor:start;font-family:sans-serif;font-style:normal;font-weight:normal" x="640" y="160">
    <tspan x="640" y="160">graphQl</tspan>
  </text>
  <text font-size="12.8" style="fill: #000000;text-anchor:start;font-family:sans-serif;font-style:normal;font-weight:normal" x="1100" y="180">
    <tspan x="1100" y="180">graphQl</tspan>
  </text>
  <text font-size="12.8" style="fill: #000000;text-anchor:start;font-family:sans-serif;font-style:normal;font-weight:normal" x="860" y="60">
    <tspan x="860" y="60">webdav</tspan>
  </text>
  <g>
    <rect style="fill: #ffffff" x="600" y="240" width="240" height="60"/>
    <rect style="fill: none; fill-opacity:0; stroke-width: 2; stroke: #000000" x="600" y="240" width="240" height="60"/>
    <text font-size="12.8" style="fill: #000000;text-anchor:middle;font-family:sans-serif;font-style:normal;font-weight:normal" x="720" y="273.9">
      <tspan x="720" y="273.9">api</tspan>
    </text>
  </g>
  <g>
    <rect style="fill: #ffffff" x="940" y="240" width="240" height="60"/>
    <rect style="fill: none; fill-opacity:0; stroke-width: 2; stroke: #000000" x="940" y="240" width="240" height="60"/>
    <text font-size="12.8" style="fill: #000000;text-anchor:middle;font-family:sans-serif;font-style:normal;font-weight:normal" x="1060" y="273.9">
      <tspan x="1060" y="273.9">frontend</tspan>
    </text>
  </g>
  <polyline style="fill: none; fill-opacity:0; stroke-width: 2; stroke: #000000" points="841.007,270 842.007,270 937.993,270 938.993,270 "/>
  <text font-size="12.8" style="fill: #000000;text-anchor:start;font-family:sans-serif;font-style:normal;font-weight:normal" x="860" y="260">
    <tspan x="860" y="260">graphQl</tspan>
  </text>
  <text font-size="12.8" style="fill: #000000;text-anchor:start;font-family:sans-serif;font-style:normal;font-weight:normal" x="580" y="220">
    <tspan x="580" y="220">admin-console</tspan>
    <tspan x="580" y="236"></tspan>
  </text>
</svg>
