<svg xmlns="http://www.w3.org/2000/svg" width="20" height="20" viewBox="0 0 20 20">
  <path fill-rule="evenodd" d="M12.0026501,2.50765133 C12.0026501,2.29650615 11.8928579,2.11104444 11.7274919,2.00425526 L10.9109634,1.53465323 C10.6585769,1.38947401 10.3254051,1.31728994 9.99250431,1.31837135 C9.66475431,1.31945276 9.3375465,1.39163683 9.08895531,1.53465323 L7.39083621,2.51170662 L7.31899688,2.55307053 L4.7891681,4.00864758 L3.09836848,4.98137534 C3.06990384,4.99786683 3.0414392,5.01571009 3.01324565,5.0349051 C2.55184739,5.35013594 2.1875,6.01060673 2.1875,6.55428531 L2.1875,8.51028456 L2.1875,11.5074107 L2.1875,13.4463778 C2.1875,13.7367362 2.29105707,14.0598073 2.45804963,14.3461104 C2.62260236,14.628899 2.84923511,14.876001 3.09836848,15.0192877 L3.92167431,15.4929451 C4.00164639,15.5321462 4.09164888,15.554315 4.18707319,15.554315 C4.51888957,15.554315 4.78808374,15.2861255 4.78808374,14.9552142 C4.78808374,14.9552142 4.78835483,14.9576474 4.7891681,14.9625138 L4.7891681,13.004622 L4.7891681,10.0101994 L4.7891681,7.99120805 C4.80380706,7.72220746 4.90248448,7.42968622 5.05456699,7.16744444 C5.22101736,6.88005989 5.4514454,6.62917291 5.70437406,6.4845344 L5.69786785,6.48669722 L7.39083621,5.51072524 L9.99250431,4.01135111 L11.7315583,3.00861424 C11.8950266,2.90155471 12.0026501,2.71717441 12.0026501,2.50765133 Z M17.7973189,6.35627925 C17.7637035,6.12539834 17.6742432,5.88397369 17.5473722,5.66417723 C17.3820062,5.37706304 17.1534758,5.12617606 16.9016315,4.9812672 L16.1702258,4.56059894 L16.1723945,4.56330246 C15.9246166,4.41028303 15.5936135,4.32782557 15.2609839,4.31863359 C14.9470596,4.30998231 14.6317798,4.36648595 14.3837308,4.49003698 L12.5942537,5.51980908 L9.99258564,7.01675004 L8.20798825,8.04327791 C7.99545227,8.19197171 7.80406145,8.41284958 7.66038279,8.66103303 C7.49637225,8.94382159 7.39417064,9.26202631 7.39281518,9.54832945 L7.39091754,9.54102993 L7.39091754,11.5075729 L7.39091754,14.5017252 L7.39091754,16.4417737 C7.39091754,16.7324024 7.49501679,17.0562846 7.66228044,17.3433988 C7.81463403,17.6042888 8.01930835,17.8343586 8.24567001,17.9806192 L9.08903664,18.4659017 C9.33762783,18.6091885 9.66483564,18.6811022 9.99258564,18.6821836 C10.3010881,18.683265 10.6104039,18.621084 10.8549287,18.4964515 C10.8741762,18.4867188 10.8926104,18.4764455 10.9110447,18.4659017 L12.5942537,17.4977699 L15.1959218,16.000829 L16.9016315,15.0191796 C16.9062401,15.0164761 16.9111197,15.0140429 16.9157283,15.011069 C17.3543548,14.7509901 17.7203288,14.1710843 17.7973189,13.6444379 C17.8073493,13.5773905 17.8125,13.5108838 17.8125,13.44654 L17.8125,11.4997327 L17.8125,8.50585079 L17.8125,6.55417717 C17.8125,6.48956296 17.8073493,6.42332663 17.7973189,6.35627925 Z M15.1959218,9.41180151 L15.1959218,10.6105438 L15.1959218,12.4056834 C15.1959218,12.735243 14.9616985,13.1396901 14.6754256,13.3043346 L13.11475,14.2024452 C12.8284771,14.3668194 12.3600304,14.6363607 12.0734864,14.8012756 L10.5130819,15.6991158 C10.2265379,15.8637603 9.99258564,15.7288545 9.99258564,15.3990247 L9.99258564,13.6041554 L9.99258564,12.4054131 L9.99258564,10.6102735 C9.99258564,10.2804436 10.2265379,9.8759965 10.5130819,9.71135191 L12.0734864,8.81351176 C12.3600304,8.64886718 12.8284771,8.37932589 13.11475,8.21441095 L14.6754256,7.3165708 C14.9616985,7.15192622 15.1959218,7.28683204 15.1959218,7.61639155 L15.1959218,9.41180151 Z"/>
</svg>
