<?xml version="1.0" encoding="UTF-8" standalone="no"?>
<svg
   xmlns:dc="http://purl.org/dc/elements/1.1/"
   xmlns:cc="http://creativecommons.org/ns#"
   xmlns:rdf="http://www.w3.org/1999/02/22-rdf-syntax-ns#"
   xmlns:svg="http://www.w3.org/2000/svg"
   xmlns="http://www.w3.org/2000/svg"
   xmlns:sodipodi="http://sodipodi.sourceforge.net/DTD/sodipodi-0.dtd"
   xmlns:inkscape="http://www.inkscape.org/namespaces/inkscape"
   width="256.604"
   height="45.428"
   viewBox="0 0 240.56632 42.588596"
   id="svg2"
   version="1.1"
   inkscape:version="0.91 r13725"
   sodipodi:docname="add account.svg">
  <metadata
     id="metadata18">
    <rdf:RDF>
      <cc:Work
         rdf:about="">
        <dc:format>image/svg+xml</dc:format>
        <dc:type
           rdf:resource="http://purl.org/dc/dcmitype/StillImage" />
      </cc:Work>
    </rdf:RDF>
  </metadata>
  <defs
     id="defs16" />
  <sodipodi:namedview
     pagecolor="#ffffff"
     bordercolor="#666666"
     borderopacity="1"
     objecttolerance="10"
     gridtolerance="10"
     guidetolerance="10"
     inkscape:pageopacity="0"
     inkscape:pageshadow="2"
     inkscape:window-width="1679"
     inkscape:window-height="1006"
     id="namedview14"
     showgrid="false"
     inkscape:zoom="1.2080872"
     inkscape:cx="141.1322"
     inkscape:cy="22.714001"
     inkscape:window-x="0"
     inkscape:window-y="0"
     inkscape:window-maximized="0"
     inkscape:current-layer="g4" />
  <g
     style="line-height:125%;-inkscape-font-specification:'Lato Medium'"
     font-weight="500"
     font-size="31.25"
     font-family="Lato"
     letter-spacing="0"
     word-spacing="0"
     fill="#337ab7"
     id="g4">
    <path
       d="M82.907 14.703L79.579 6q-.36-.89-.72-2.25-.171.672-.359 1.25-.171.578-.343 1.031l-3.313 8.672h8.063zm6.578 8.36h-2.563q-.437 0-.718-.22-.282-.218-.407-.562l-1.984-5.203h-9.89l-1.985 5.203q-.11.297-.406.547-.297.235-.72.235H68.25L77.188.625h3.36l8.937 22.438zM101.53 11.031q-.75-.984-1.626-1.375-.86-.39-1.937-.39-2.094 0-3.25 1.515-1.14 1.5-1.14 4.39 0 1.517.25 2.595.265 1.062.75 1.75.5.672 1.218 1 .719.312 1.625.312 1.328 0 2.297-.594.968-.593 1.812-1.672v-7.53zM104.591 0v23.063h-1.844q-.64 0-.797-.61l-.266-1.828q-1.015 1.203-2.312 1.938-1.281.718-2.969.718-1.36 0-2.469-.531-1.093-.531-1.875-1.547-.78-1.031-1.203-2.547-.422-1.515-.422-3.484 0-1.766.47-3.281.468-1.516 1.359-2.625.89-1.11 2.156-1.735 1.265-.64 2.86-.64 1.437 0 2.437.468 1.015.47 1.812 1.329V0h3.063zM119.107 11.031q-.75-.984-1.625-1.375-.859-.39-1.937-.39-2.094 0-3.25 1.515-1.14 1.5-1.14 4.39 0 1.517.25 2.595.265 1.062.75 1.75.5.672 1.218 1 .719.312 1.625.312 1.328 0 2.297-.594.969-.593 1.812-1.672v-7.53zM122.17 0v23.063h-1.844q-.64 0-.797-.61l-.265-1.828q-1.016 1.203-2.313 1.938-1.281.718-2.969.718-1.359 0-2.468-.531-1.094-.531-1.875-1.547-.782-1.031-1.204-2.547-.421-1.515-.421-3.484 0-1.766.468-3.281.47-1.516 1.36-2.625.89-1.11 2.156-1.735 1.266-.64 2.86-.64 1.437 0 2.437.468 1.015.47 1.812 1.329V0h3.063zM142.856 16.016q-1.86.062-3.156.297-1.297.218-2.11.593-.812.375-1.172.89-.359.5-.359 1.126 0 .594.188 1.031.203.422.53.703.345.266.798.39.453.126.984.126.703 0 1.281-.14.594-.141 1.11-.391.515-.266.984-.641t.922-.86v-3.124zm-8.938-6.61q1.329-1.265 2.875-1.89 1.563-.625 3.422-.625 1.36 0 2.407.453 1.046.437 1.765 1.234.719.797 1.078 1.906.375 1.11.375 2.454v10.125h-1.36q-.452 0-.687-.141-.234-.156-.375-.563l-.328-1.39q-.61.562-1.203 1-.594.422-1.25.734-.64.297-1.375.453-.734.157-1.625.157-.937 0-1.765-.25-.813-.266-1.422-.797-.61-.532-.97-1.328-.343-.797-.343-1.86 0-.937.5-1.797.516-.875 1.656-1.562 1.157-.688 3-1.125 1.86-.438 4.563-.5v-1.156q0-1.797-.766-2.688-.765-.89-2.25-.89-1 0-1.687.25-.672.25-1.172.562-.484.297-.86.547-.359.25-.75.25-.312 0-.546-.172-.22-.172-.36-.406l-.547-.985zM161.075 10.156q-.141.172-.282.281-.125.094-.375.094t-.53-.187q-.266-.203-.688-.422-.407-.235-1-.422-.578-.203-1.438-.203-1.125 0-1.984.406-.86.406-1.438 1.156-.562.75-.86 1.828-.296 1.079-.296 2.422 0 1.391.313 2.485.312 1.078.89 1.828.578.734 1.406 1.125.829.375 1.844.375.985 0 1.625-.235.64-.25 1.063-.53.422-.282.703-.516.281-.25.578-.25.375 0 .578.28l.875 1.126q-.547.672-1.234 1.14-.672.47-1.438.766-.765.297-1.61.438-.827.14-1.687.14-1.484 0-2.781-.547-1.281-.547-2.234-1.593-.938-1.047-1.485-2.563-.547-1.531-.547-3.469 0-1.765.485-3.265.5-1.5 1.453-2.578.969-1.094 2.375-1.704 1.406-.625 3.219-.625 1.703 0 3 .547t2.312 1.547l-.812 1.125zM175.723 10.156q-.14.172-.281.281-.125.094-.375.094t-.531-.187q-.266-.203-.688-.422-.406-.235-1-.422-.578-.203-1.437-.203-1.125 0-1.985.406-.86.406-1.437 1.156-.563.75-.86 1.828-.297 1.079-.297 2.422 0 1.391.313 2.485.312 1.078.89 1.828.579.734 1.407 1.125.828.375 1.844.375.984 0 1.625-.235.64-.25 1.062-.53.422-.282.703-.516.281-.25.578-.25.375 0 .578.28l.875 1.126q-.546.672-1.234 1.14-.672.47-1.437.766-.766.297-1.61.438-.828.14-1.687.14-1.485 0-2.782-.547-1.28-.547-2.234-1.593-.937-1.047-1.484-2.563-.547-1.531-.547-3.469 0-1.765.484-3.265.5-1.5 1.453-2.578.97-1.094 2.375-1.704 1.407-.625 3.22-.625 1.702 0 3 .547 1.296.547 2.312 1.547l-.813 1.125zM186.012 6.938q1.75 0 3.156.578 1.422.562 2.407 1.64 1 1.063 1.53 2.578.532 1.5.532 3.375t-.531 3.391q-.531 1.516-1.531 2.578-.985 1.063-2.407 1.64-1.406.563-3.156.563-1.765 0-3.187-.562-1.407-.578-2.407-1.64-1-1.063-1.546-2.579-.532-1.516-.532-3.39 0-1.876.532-3.376.546-1.515 1.546-2.578 1-1.078 2.407-1.64 1.422-.578 3.187-.578zm0 13.968q2.25 0 3.36-1.515 1.109-1.516 1.109-4.266t-1.11-4.266q-1.109-1.53-3.359-1.53-2.281 0-3.406 1.53-1.11 1.516-1.11 4.266t1.11 4.266q1.125 1.515 3.406 1.515zM210.21 7.188v15.875h-1.827q-.625 0-.813-.61l-.218-1.594q-.516.547-1.079 1-.562.453-1.203.782-.64.312-1.36.484-.718.188-1.546.188-1.312 0-2.312-.438-.985-.438-1.657-1.219-.672-.797-1.015-1.906-.344-1.11-.344-2.453V7.187h3.062v10.11q0 1.703.782 2.656.78.938 2.39.938 1.172 0 2.188-.547 1.015-.563 1.906-1.532V7.188h3.047zM217.323 9.39q.516-.546 1.078-1 .563-.452 1.188-.765.64-.328 1.36-.5.734-.187 1.562-.187 1.312 0 2.297.437 1 .438 1.671 1.234.672.782 1.016 1.891.344 1.11.344 2.453v10.11h-3.063v-10.11q0-1.703-.78-2.64-.782-.954-2.392-.954-1.171 0-2.203.563-1.015.547-1.89 1.5v11.64h-3.047V7.189h1.828q.64 0 .797.609l.234 1.594zM236.644 23.313q-1.921 0-2.968-1.079-1.032-1.078-1.032-3.078v-9.5h-1.843q-.266 0-.453-.156-.172-.172-.172-.5V7.766l2.578-.36.687-4.734q.063-.266.235-.406.187-.157.468-.157h1.547v5.329h4.5v2.218h-4.5v9.297q0 .938.453 1.406.47.453 1.188.453.422 0 .719-.109.312-.11.531-.234.219-.14.375-.25.156-.11.281-.11.156 0 .235.078.093.063.187.22l.906 1.468q-.75.687-1.78 1.062-1.032.375-2.142.375z"
       style="-inkscape-font-specification:'Lato Medium';fill:#000000;fill-opacity:1"
       id="path6" />
  </g>
  <path
     d="M43.098 11.366c-1.636-.264-3.251-.743-4.906-.791-5.759-.17-11.464.61-16.68 3.335-7.088 3.7-12.096 9.045-16.25 15.849-1.976 3.235-3.163 6.899-4.744 10.348-.172.25 3.331 2.714 3.503 2.464 3.586-8.08 4.494-11.927 10.705-18.53 2.314-2.46 4.978-4.636 7.883-6.342 4.738-2.78 10.014-3.72 15.361-4.101 1.541-.11 3.09.083 4.634.124.166.036.659-2.32.494-2.356z"
     id="path8" />
  <path
     d="M4.183 42.45c2.992-1.243 5.81-2.851 8.541-4.585 1.359-.862 2.672-1.793 4.008-2.69.331-.148-1.77-4.828-2.1-4.68-1.325.928-2.675 1.82-3.974 2.783-2.677 1.982-5.229 4.109-7.572 6.477-.19.078.906 2.772 1.097 2.695z"
     id="path10" />
  <path
     d="M2.98 21.4c-.1.09-.246.147-.3.27-.843 1.91-1.275 3.834-1.668 5.892-.597 3.137-.853 5.315-.989 8.49-.047 1.115-.007 2.232-.01 3.348-.105.298 4.11 1.777 4.215 1.479.214-1.047.475-2.085.641-3.14.503-3.199.62-5.273.696-8.538.03-1.294.049-2.59-.006-3.882-.009-.22-.367-3.693-.444-4.44-.036-.15-2.171.37-2.135.52z"
     id="path12" />
</svg>
