<svg xmlns="http://www.w3.org/2000/svg" width="20" height="20" viewBox="0 0 20 20"><path fill="#FFF" fill-rule="evenodd" d="M11.129 17.193l-.404.232-.05.027c-.216.11-.49.165-.763.164a1.65 1.65 0 0 1-.8-.191l-.747-.43a1.69 1.69 0 0 1-.517-.564 1.648 1.648 0 0 1-.24-.799V9.521l.002.007c0-.254.091-.536.237-.786a1.73 1.73 0 0 1 .485-.547l1.58-.91 2.304-1.325 1.585-.912c.22-.11.498-.16.776-.152.295.008.588.081.808.217l-.002-.002.647.372c.223.128.426.35.572.605.112.195.192.408.221.613.01.06.014.118.014.175v2.203A4.978 4.978 0 0 0 14.52 8.5v-.683c0-.292-.208-.412-.461-.266l-1.382.795-.922.53-1.382.796c-.254.146-.461.504-.461.796v1.041A4.983 4.983 0 0 0 9.5 13.5c0 1.462.628 2.778 1.629 3.693zm.563-13.9a.53.53 0 0 0-.244-.446l-.723-.416a1.659 1.659 0 0 0-.813-.192c-.29.001-.58.065-.8.192l-1.504.865-.064.037-2.24 1.289-1.497.861c-.026.015-.05.03-.076.048C3.323 5.81 3 6.395 3 6.876v6.103c0 .258.092.544.24.797.145.25.346.47.567.596l.729.42a.532.532 0 0 0 .768-.47V8.15c.013-.239.1-.498.235-.73.147-.254.351-.477.575-.605l-.005.002 1.499-.864 2.304-1.328 1.54-.888a.53.53 0 0 0 .24-.443zm4.947 10.186c.003.23-.03.459-.1.676-.103.32-.278.604-.52.842a2.179 2.179 0 0 1-2.521.377l.718-.7-2.878-.401.401 2.808.844-.809a3.46 3.46 0 0 0 2.15.584 3.4 3.4 0 0 0 2.178-.972 3.328 3.328 0 0 0 .985-2.185l-1.257-.22zm1.021-.75l-.401-2.81-.843.81a3.455 3.455 0 0 0-2.15-.582 3.402 3.402 0 0 0-2.178.971 3.33 3.33 0 0 0-.984 2.178l1.257.22a2.056 2.056 0 0 1 .62-1.512c.352-.347.819-.565 1.314-.611.418-.04.838.044 1.206.234l-.72.7 2.879.402z"/></svg>