<svg xmlns="http://www.w3.org/2000/svg" width="22" height="22" viewBox="0 0 22 22"><path fill-rule="evenodd" d="M15.298 15.312c1.112-1.112 1.588-2.289 1.593-3.937a.799.799 0 0 0-.802-.802.811.811 0 0 0-.807.808c-.004 1.227-.306 1.985-1.118 2.797a4.422 4.422 0 0 1-3.134 1.306c-1.142.003-2.036-.321-2.853-1.035l1.419-.005a.81.81 0 0 0 .807-.808.799.799 0 0 0-.802-.802l-4.219.014-.013 4.219a.794.794 0 0 0 .802.802.81.81 0 0 0 .807-.808l.004-1.52c1.138 1.043 2.461 1.556 4.042 1.553a6.033 6.033 0 0 0 4.274-1.782zM7.66 7.57a4.563 4.563 0 0 1 3.348-1.334c1.238.024 2.216.4 3.121 1.203l-1.565-.03a.828.828 0 0 0-.85.85c.003.24.105.46.265.62a.9.9 0 0 0 .618.265l4.549.087-.087-4.548a.908.908 0 0 0-.884-.885.828.828 0 0 0-.851.851l.03 1.61C14.105 5.112 12.67 4.532 10.974 4.5c-1.738-.034-3.36.612-4.565 1.818-1.172 1.172-1.658 2.43-1.624 4.207.005.24.107.458.267.618a.9.9 0 0 0 .618.266c.48.009.86-.372.852-.852-.027-1.323.282-2.133 1.137-2.988z"/></svg>