<svg xmlns="http://www.w3.org/2000/svg" width="22" height="22" viewBox="0 0 22 22"><path fill="#1D1D1B" fill-rule="evenodd" d="M11 9.721c-.707 0-1.282.575-1.282 1.281a1.283 1.283 0 0 0 2.563 0c0-.706-.575-1.28-1.281-1.28zm0 4.271a2.993 2.993 0 0 1-2.99-2.99A2.993 2.993 0 0 1 11 8.012a2.993 2.993 0 0 1 2.99 2.99 2.993 2.993 0 0 1-2.99 2.99zm-.684 3.844h1.367a3.316 3.316 0 0 1 4.894-2.825l.684-1.183a3.297 3.297 0 0 1-1.472-1.968 3.296 3.296 0 0 1 .332-2.513 3.308 3.308 0 0 1 1.14-1.17l-.684-1.184a3.288 3.288 0 0 1-2.44.29 3.295 3.295 0 0 1-2.012-1.544 3.315 3.315 0 0 1-.442-1.57h-1.367a3.317 3.317 0 0 1-4.893 2.825l-.684 1.183a3.3 3.3 0 0 1 1.471 1.968c.228.855.11 1.748-.331 2.513a3.308 3.308 0 0 1-1.14 1.17l.684 1.183a3.306 3.306 0 0 1 2.439-.29c.855.23 1.57.777 2.013 1.544.276.48.428 1.021.441 1.571zm.001.054v.001zm1.45 1.655h-1.534a1.626 1.626 0 0 1-1.624-1.623 1.604 1.604 0 0 0-2.406-1.389 1.627 1.627 0 0 1-2.218-.595l-.767-1.328a1.626 1.626 0 0 1 .592-2.218c.257-.15.449-.345.587-.587.216-.372.273-.804.162-1.217a1.59 1.59 0 0 0-.748-.975 1.625 1.625 0 0 1-.593-2.219l.767-1.327c.216-.375.566-.643.986-.756.42-.113.857-.055 1.232.161a1.605 1.605 0 0 0 2.406-1.389c0-.894.728-1.623 1.625-1.623h1.533c.895 0 1.624.729 1.624 1.623a1.596 1.596 0 0 0 1.188 1.55c.416.112.847.053 1.218-.16a1.625 1.625 0 0 1 2.218.593l.767 1.329c.449.775.182 1.77-.593 2.218a1.581 1.581 0 0 0-.587.587 1.588 1.588 0 0 0-.161 1.217c.11.415.376.76.747.974l.001.001a1.624 1.624 0 0 1 .592 2.219l-.766 1.326a1.608 1.608 0 0 1-.986.756 1.616 1.616 0 0 1-1.231-.16 1.605 1.605 0 0 0-2.407 1.389c0 .894-.729 1.623-1.625 1.623z"/></svg>