<svg xmlns="http://www.w3.org/2000/svg" width="120" height="22" viewBox="0 0 120 22"><path fill="#1174FF" fill-rule="evenodd" d="M12.821 10.562V12.912c0 .258-.177.575-.393.704l-1.178.705-.786.47-1.178.704c-.217.13-.393.024-.393-.235v-3.758c0-.258.176-.575.393-.705l1.178-.704.786-.47 1.178-.705c.216-.129.393-.023.393.236v1.408zm1.964-2.397a1.6 1.6 0 0 0-.189-.543 1.439 1.439 0 0 0-.487-.536l-.552-.33.001.002a1.373 1.373 0 0 0-.688-.192 1.384 1.384 0 0 0-.662.135l-1.351.808-1.964 1.174-1.348.806c-.16.116-.305.29-.413.484a1.496 1.496 0 0 0-.202.696l-.002-.005V16.078c0 .228.08.482.205.707.115.205.27.386.44.5l.638.381c.187.113.434.17.682.17a1.408 1.408 0 0 0 .693-.17l1.27-.76 1.965-1.174 1.288-.77.01-.006c.332-.205.608-.66.666-1.073.008-.052.012-.105.012-.155V8.321c0-.052-.004-.104-.012-.156zm-4.375-3.02a.474.474 0 0 0-.207-.395l-.617-.368a1.371 1.371 0 0 0-.693-.17c-.248 0-.495.058-.683.17l-1.282.766-.054.033-1.91 1.142-1.276.763a1.041 1.041 0 0 0-.065.042C3.275 7.375 3 7.894 3 8.32v5.407c0 .229.078.482.204.707.125.222.296.416.484.528l.621.372a.44.44 0 0 0 .2.048.462.462 0 0 0 .455-.465V9.448c.011-.211.086-.44.2-.647.126-.225.3-.422.491-.535l-.005.001 1.278-.766 1.965-1.176 1.313-.787a.474.474 0 0 0 .204-.393zm98.14 1.064h3.825c1.354 0 2.46.438 3.317 1.3.856.863 1.291 2.035 1.291 3.515s-.435 2.665-1.291 3.527c-.858.863-1.976 1.288-3.33 1.288h-3.813v-9.63zm1.912 1.7v6.23h1.926c1.652 0 2.695-1.094 2.695-3.115s-1.019-3.115-2.695-3.115h-1.926zm-3.9-1.7v5.716c0 1.275-.348 2.279-1.056 2.987-.708.708-1.665 1.068-2.894 1.068-1.23 0-2.199-.36-2.907-1.068-.708-.708-1.055-1.712-1.055-2.987V6.21h1.913v5.69c0 1.506.707 2.317 2.049 2.317 1.329 0 2.037-.811 2.037-2.318V6.21h1.913zM95.63 7.434c.907.9 1.354 2.098 1.354 3.591 0 1.493-.447 2.69-1.354 3.604-.906.902-2.061 1.352-3.465 1.352-1.416 0-2.57-.45-3.478-1.352-.906-.914-1.353-2.11-1.353-3.604 0-1.493.447-2.69 1.353-3.591.907-.914 2.062-1.365 3.478-1.365 1.404 0 2.559.45 3.465 1.365zM90.08 8.694c-.534.566-.795 1.339-.795 2.33 0 .978.26 1.75.795 2.33.534.58 1.23.863 2.086.863.857 0 1.54-.283 2.062-.863.534-.58.795-1.352.795-2.33 0-.991-.261-1.764-.795-2.33-.522-.579-1.205-.862-2.062-.862-.857 0-1.552.283-2.086.862zm-7.565 5.38h4.049v1.765h-5.974v-9.63h1.925v7.866zM77.47 7.06c.82.657 1.317 1.558 1.478 2.678l-2 .18c-.26-1.339-1.18-2.085-2.471-2.085-.82 0-1.478.296-1.975.875-.485.58-.733 1.352-.733 2.317 0 1.017.248 1.802.758 2.356.509.553 1.167.837 1.962.837 1.292 0 2.211-.721 2.46-2.047l2.012.18c-.174 1.12-.671 1.995-1.478 2.652-.808.656-1.789.978-2.932.978-1.39 0-2.534-.45-3.415-1.339-.882-.888-1.317-2.098-1.317-3.617 0-1.532.435-2.729 1.317-3.617.881-.888 2.012-1.339 3.403-1.339 1.143 0 2.124.335 2.931.991zm-10.148-.193c.634.528.957 1.249.981 2.163l-1.962.103c-.012-.824-.559-1.339-1.44-1.339-.858 0-1.38.45-1.38 1.159 0 .347.124.592.386.759.26.155.732.322 1.428.49 1.068.283 1.863.63 2.372 1.03.522.398.783 1.003.783 1.801 0 .966-.323 1.7-.97 2.202-.633.501-1.453.746-2.446.746-1.106 0-2-.27-2.683-.81-.683-.542-1.03-1.301-1.043-2.28l1.95-.102c.037.875.77 1.467 1.776 1.467.981 0 1.466-.373 1.466-1.107 0-.682-.535-.965-1.913-1.326a12.759 12.759 0 0 1-1.205-.36 5.072 5.072 0 0 1-.944-.49c-.633-.424-.919-1.068-.919-1.956 0-.837.286-1.545.857-2.098.571-.567 1.391-.85 2.447-.85 1.018 0 1.838.27 2.46.798zm-8.422 0c.634.528.956 1.249.981 2.163l-1.962.103c-.012-.824-.559-1.339-1.44-1.339-.858 0-1.38.45-1.38 1.159 0 .347.125.592.386.759.26.155.732.322 1.428.49 1.068.283 1.863.63 2.372 1.03.522.398.783 1.003.783 1.801 0 .966-.323 1.7-.969 2.202-.634.501-1.453.746-2.447.746-1.105 0-2-.27-2.683-.81-.683-.542-1.03-1.301-1.043-2.28l1.95-.102c.037.875.77 1.467 1.776 1.467.981 0 1.466-.373 1.466-1.107 0-.682-.534-.965-1.913-1.326a12.759 12.759 0 0 1-1.205-.36 5.08 5.08 0 0 1-.944-.49c-.633-.424-.919-1.068-.919-1.956 0-.837.286-1.545.857-2.098.571-.567 1.391-.85 2.447-.85 1.018 0 1.838.27 2.46.798zm-8.683.567c.907.9 1.354 2.098 1.354 3.591 0 1.493-.447 2.69-1.354 3.604-.907.902-2.061 1.352-3.465 1.352-1.416 0-2.571-.45-3.478-1.352-.906-.914-1.354-2.11-1.354-3.604 0-1.493.448-2.69 1.354-3.591.907-.914 2.062-1.365 3.478-1.365 1.404 0 2.558.45 3.465 1.365zm-5.552 1.261c-.534.566-.795 1.339-.795 2.33 0 .978.261 1.75.795 2.33.534.58 1.23.863 2.087.863.857 0 1.54-.283 2.062-.863.534-.58.795-1.352.795-2.33 0-.991-.261-1.764-.795-2.33-.522-.579-1.205-.862-2.062-.862-.857 0-1.553.283-2.087.862zM30.157 7.06c.82.657 1.316 1.558 1.478 2.678l-2 .18c-.26-1.339-1.18-2.085-2.472-2.085-.82 0-1.478.296-1.974.875-.485.58-.733 1.352-.733 2.317 0 1.017.248 1.802.757 2.356.51.553 1.168.837 1.963.837 1.292 0 2.21-.721 2.459-2.047l2.012.18c-.174 1.12-.67 1.995-1.478 2.652-.807.656-1.788.978-2.931.978-1.391 0-2.534-.45-3.416-1.339-.881-.888-1.316-2.098-1.316-3.617 0-1.532.435-2.729 1.316-3.617.882-.888 2.012-1.339 3.403-1.339 1.143 0 2.124.335 2.932.991zm8.41 8.78l-1.814-3.463H35.2v3.463h-1.925v-9.63h3.974c.907 0 1.628.271 2.174.825.547.54.82 1.3.82 2.265 0 1.326-.547 2.279-1.49 2.755l1.974 3.785h-2.16zm-3.38-5.227h1.826c.758 0 1.28-.49 1.28-1.313 0-.862-.522-1.339-1.28-1.339h-1.825v2.652z"/></svg>