<svg xmlns="http://www.w3.org/2000/svg" width="20" height="20" viewBox="0 0 20 20"><path fill-rule="evenodd" d="M12.003 2.508a.599.599 0 0 0-.276-.504l-.816-.47c-.252-.145-.586-.217-.918-.216-.328.001-.655.074-.904.217l-1.698.977-.072.041-2.53 1.456-1.69.972a1.386 1.386 0 0 0-.086.054c-.461.315-.825.976-.825 1.52V13.446c0 .29.103.613.27.9.165.282.391.529.64.672l.824.474a.601.601 0 0 0 .867-.53V7.99c.015-.269.113-.561.266-.824.166-.287.396-.538.65-.682l-.007.002L7.39 5.51l2.602-1.5 1.739-1.002a.598.598 0 0 0 .27-.501zm5.794 3.848a1.99 1.99 0 0 0-.25-.692c-.165-.287-.394-.538-.645-.683l-.732-.42.002.002c-.247-.153-.578-.235-.911-.244a1.895 1.895 0 0 0-.877.171l-1.79 1.03-2.601 1.497-1.785 1.026c-.213.149-.404.37-.548.618-.164.283-.266.601-.267.887l-.002-.007v6.901c0 .29.104.614.271.901.153.261.357.491.584.638l.843.485c.249.143.576.215.904.216a1.926 1.926 0 0 0 .918-.216l1.683-.968L15.196 16l1.706-.982.014-.008c.438-.26.804-.84.881-1.367.01-.067.015-.133.015-.197V6.554c0-.064-.005-.13-.015-.198zm-2.601 3.056V12.406c0 .33-.234.734-.52.898l-1.561.898-1.042.6-1.56.897c-.286.165-.52.03-.52-.3V10.61c0-.33.234-.734.52-.899l1.56-.897 1.042-.6 1.56-.897c.287-.165.52-.03.52.3v1.795z"/></svg>