<?xml version="1.0" encoding="UTF-8" standalone="no"?>
<svg
   xmlns:dc="http://purl.org/dc/elements/1.1/"
   xmlns:cc="http://creativecommons.org/ns#"
   xmlns:rdf="http://www.w3.org/1999/02/22-rdf-syntax-ns#"
   xmlns:svg="http://www.w3.org/2000/svg"
   xmlns="http://www.w3.org/2000/svg"
   xmlns:sodipodi="http://sodipodi.sourceforge.net/DTD/sodipodi-0.dtd"
   xmlns:inkscape="http://www.inkscape.org/namespaces/inkscape"
   width="253.284"
   height="43.372"
   viewBox="0 0 237.45325 40.661018"
   id="svg2"
   version="1.1"
   inkscape:version="0.91 r13725"
   sodipodi:docname="open folder.svg">
  <metadata
     id="metadata18">
    <rdf:RDF>
      <cc:Work
         rdf:about="">
        <dc:format>image/svg+xml</dc:format>
        <dc:type
           rdf:resource="http://purl.org/dc/dcmitype/StillImage" />
      </cc:Work>
    </rdf:RDF>
  </metadata>
  <defs
     id="defs16" />
  <sodipodi:namedview
     pagecolor="#ffffff"
     bordercolor="#666666"
     borderopacity="1"
     objecttolerance="10"
     gridtolerance="10"
     guidetolerance="10"
     inkscape:pageopacity="0"
     inkscape:pageshadow="2"
     inkscape:window-width="666"
     inkscape:window-height="480"
     id="namedview14"
     showgrid="false"
     inkscape:zoom="1.2239226"
     inkscape:cx="126.642"
     inkscape:cy="21.686001"
     inkscape:window-x="0"
     inkscape:window-y="0"
     inkscape:window-maximized="0"
     inkscape:current-layer="svg2" />
  <g
     style="line-height:125%;-inkscape-font-specification:'Lato Medium';fill:#000000;fill-opacity:1"
     font-weight="500"
     font-size="31.25"
     font-family="Lato"
     letter-spacing="0"
     word-spacing="0"
     fill="#337ab7"
     id="g4">
    <path
       d="M22.281 24.114q0 2.516-.812 4.625-.797 2.094-2.266 3.625-1.469 1.516-3.516 2.36-2.046.843-4.546.843-2.485 0-4.547-.843-2.047-.844-3.516-2.36Q1.625 30.833.812 28.74 0 26.63 0 24.114q0-2.5.812-4.61.813-2.109 2.266-3.624 1.469-1.531 3.516-2.375 2.062-.86 4.547-.86 2.5 0 4.546.86 2.047.844 3.516 2.375 1.469 1.515 2.266 3.625.812 2.11.812 4.61zm-3.406 0q0-2-.547-3.594-.547-1.593-1.562-2.703-1-1.11-2.438-1.703-1.422-.594-3.187-.594-1.766 0-3.204.594-1.421.594-2.437 1.703-1.016 1.11-1.563 2.703-.546 1.594-.546 3.594 0 2.016.546 3.61.547 1.578 1.563 2.687 1.016 1.11 2.437 1.703 1.438.578 3.204.578 1.765 0 3.187-.578 1.438-.594 2.438-1.703 1.015-1.11 1.562-2.687.547-1.594.547-3.61zM28.577 31.427q.75.984 1.61 1.375.874.39 1.953.39 2.093 0 3.234-1.5 1.156-1.515 1.156-4.406 0-1.516-.265-2.578-.25-1.078-.75-1.75-.485-.688-1.204-1-.718-.328-1.625-.328-1.328 0-2.312.594-.969.593-1.797 1.687v7.516zm-.156-9.594q.5-.594 1.062-1.078.578-.5 1.235-.844.656-.36 1.39-.547.75-.203 1.594-.203 1.36 0 2.453.531 1.11.532 1.89 1.563.782 1.031 1.204 2.547.437 1.515.437 3.484 0 1.766-.484 3.281-.469 1.5-1.36 2.61-.874 1.109-2.156 1.75-1.265.625-2.859.625-1.422 0-2.437-.47-1.016-.468-1.813-1.312v6.891H25.53V19.458h1.828q.641 0 .797.61l.266 1.765zM53.624 25.63q0-.906-.266-1.672-.25-.766-.75-1.328-.5-.563-1.218-.875-.72-.313-1.657-.313-1.922 0-3.03 1.11-1.095 1.109-1.392 3.078h8.313zm2.516 7.437q-.563.657-1.297 1.14-.735.47-1.563.767-.828.296-1.719.437-.875.14-1.734.14-1.64 0-3.047-.546-1.39-.563-2.422-1.625-1.015-1.078-1.593-2.656-.563-1.594-.563-3.657 0-1.656.516-3.078.515-1.437 1.468-2.5.97-1.062 2.36-1.672 1.39-.61 3.125-.61 1.453 0 2.672.485 1.234.469 2.125 1.375.89.907 1.39 2.235.516 1.328.516 3.03 0 .704-.156.954-.157.234-.578.234H45.233q.047 1.422.407 2.485.359 1.047.984 1.75.64.703 1.516 1.047.875.343 1.953.343 1.015 0 1.75-.234.75-.234 1.281-.5.547-.281.906-.516.375-.234.656-.234.375 0 .579.281l.875 1.125zM62.508 21.661q.516-.547 1.078-1 .563-.453 1.188-.766.64-.328 1.36-.5.734-.187 1.562-.187 1.312 0 2.297.437 1 .438 1.672 1.235.671.781 1.015 1.89.344 1.11.344 2.454v10.109H69.96v-10.11q0-1.703-.78-2.64-.782-.953-2.391-.953-1.172 0-2.204.562-1.015.547-1.89 1.5v11.64h-3.047V19.459h1.828q.64 0 .797.61l.234 1.593zM86.025 35.333V21.958l-1.656-.203q-.36-.078-.594-.25-.218-.188-.218-.531v-1.266h2.468V18.27q0-1.359.391-2.421.39-1.063 1.11-1.797.734-.75 1.75-1.125 1.03-.391 2.312-.391 1.078 0 1.984.313l-.062 1.53q-.016.204-.125.313-.11.094-.297.14-.172.048-.438.063h-.547q-.703 0-1.28.172-.579.172-.985.578-.406.407-.625 1.079-.219.656-.219 1.64v1.344h4.453v2.219h-4.36v13.406h-3.062zM102.242 19.208q1.75 0 3.156.578 1.422.563 2.407 1.64 1 1.063 1.53 2.579.532 1.5.532 3.375t-.531 3.39q-.531 1.516-1.531 2.579-.985 1.062-2.407 1.64-1.406.563-3.156.563-1.765 0-3.187-.563-1.407-.578-2.407-1.64-1-1.063-1.546-2.579-.532-1.515-.532-3.39 0-1.875.532-3.375.546-1.516 1.546-2.578 1-1.078 2.407-1.641 1.422-.578 3.187-.578zm0 13.969q2.25 0 3.36-1.516 1.109-1.516 1.109-4.266t-1.11-4.265q-1.109-1.531-3.359-1.531-2.281 0-3.406 1.53-1.11 1.516-1.11 4.266t1.11 4.266q1.125 1.516 3.406 1.516zM116.363 12.27v23.063H113.3V12.27h3.063zM130.918 23.302q-.75-.985-1.625-1.375-.859-.391-1.937-.391-2.094 0-3.25 1.516-1.14 1.5-1.14 4.39 0 1.516.25 2.594.265 1.063.75 1.75.5.672 1.218 1 .719.313 1.625.313 1.328 0 2.297-.594.969-.594 1.812-1.672v-7.531zm3.063-11.032v23.063h-1.844q-.64 0-.797-.61l-.265-1.828q-1.016 1.204-2.313 1.938-1.281.719-2.969.719-1.359 0-2.468-.532-1.094-.53-1.875-1.546-.782-1.032-1.203-2.547-.422-1.516-.422-3.485 0-1.765.468-3.281.47-1.516 1.36-2.625.89-1.11 2.156-1.734 1.266-.641 2.86-.641 1.437 0 2.437.469 1.016.469 1.812 1.328V12.27h3.063zM148.778 25.63q0-.906-.266-1.672-.25-.766-.75-1.328-.5-.563-1.219-.875-.718-.313-1.656-.313-1.922 0-3.031 1.11-1.094 1.109-1.39 3.078h8.312zm2.515 7.437q-.562.657-1.296 1.14-.735.47-1.563.767-.828.296-1.719.437-.875.14-1.734.14-1.64 0-3.047-.546-1.39-.563-2.422-1.625-1.015-1.078-1.594-2.656-.562-1.594-.562-3.657 0-1.656.516-3.078.515-1.437 1.468-2.5.97-1.062 2.36-1.672 1.39-.61 3.125-.61 1.453 0 2.672.485 1.234.469 2.125 1.375.89.907 1.39 2.235.516 1.328.516 3.03 0 .704-.156.954-.157.234-.579.234h-10.406q.047 1.422.406 2.485.36 1.047.985 1.75.64.703 1.515 1.047.875.343 1.954.343 1.015 0 1.75-.234.75-.234 1.28-.5.548-.281.907-.516.375-.234.656-.234.375 0 .578.281l.875 1.125zM157.678 22.505q.765-1.563 1.843-2.453 1.079-.891 2.594-.891.516 0 .969.125.469.11.812.344l-.203 2.297q-.11.422-.515.422-.219 0-.657-.079-.437-.093-.937-.093-.734 0-1.297.218-.562.204-1.016.625-.437.407-.78 1.016-.345.594-.641 1.36v9.937h-3.047V19.458h1.75q.5 0 .672.187.187.172.265.625l.188 2.235z"
       style="-inkscape-font-specification:'Lato Medium';fill:#000000;fill-opacity:1"
       id="path6" />
  </g>
  <path
     d="M186.764 29.186c1.64.485 3.232 1.187 4.919 1.456 5.871.934 11.808.894 17.492-1.194 7.722-2.836 13.525-7.625 18.64-14.015 2.432-3.038 4.112-6.618 6.168-9.926.208-.232-3.064-3.209-3.272-2.977-4.695 7.766-6.113 11.57-13.307 17.482-2.68 2.203-5.682 4.07-8.871 5.425-5.201 2.21-10.719 2.47-16.239 2.15-1.59-.09-3.15-.493-4.726-.74-.164-.057-.968 2.28-.804 2.339z"
     id="path8" />
  <path
     d="M231.069 26.365c.474-1.014 1.002-2.004 1.423-3.04 1.318-3.25 2.159-6.018 3.045-9.425.683-2.627 1.29-5.44 1.686-8.14.11-.743.15-1.494.226-2.241.15-.277-3.787-2.423-3.938-2.147-.285.636-.604 1.257-.855 1.907-1.033 2.679-1.646 4.875-2.397 7.705-1.154 4.348-2.164 8.742-2.72 13.214-.152.248 3.377 2.415 3.53 2.167z"
     id="path10" />
  <path
     d="M232.697 0c-1.081.3-2.18.545-3.243.901-3.333 1.115-5.986 2.278-9.153 3.822-2.443 1.191-4.976 2.559-7.286 4.015-.635.4-1.232.856-1.849 1.285-.309.066.654 4.433.963 4.366.67-.197 1.35-.36 2.008-.592 2.712-.96 4.782-1.925 7.423-3.196 4.058-1.953 8.057-4.044 11.814-6.53.289-.046-.39-4.117-.677-4.07z"
     id="path12" />
</svg>
