<?xml version="1.0" encoding="UTF-8" standalone="no"?>
<svg
   xmlns:dc="http://purl.org/dc/elements/1.1/"
   xmlns:cc="http://creativecommons.org/ns#"
   xmlns:rdf="http://www.w3.org/1999/02/22-rdf-syntax-ns#"
   xmlns:svg="http://www.w3.org/2000/svg"
   xmlns="http://www.w3.org/2000/svg"
   xmlns:sodipodi="http://sodipodi.sourceforge.net/DTD/sodipodi-0.dtd"
   xmlns:inkscape="http://www.inkscape.org/namespaces/inkscape"
   width="191.278"
   height="45.862"
   viewBox="0 0 179.32303 42.995954"
   id="svg2"
   version="1.1"
   inkscape:version="0.91 r13725"
   sodipodi:docname="settings.svg">
  <metadata
     id="metadata18">
    <rdf:RDF>
      <cc:Work
         rdf:about="">
        <dc:format>image/svg+xml</dc:format>
        <dc:type
           rdf:resource="http://purl.org/dc/dcmitype/StillImage" />
      </cc:Work>
    </rdf:RDF>
  </metadata>
  <defs
     id="defs16" />
  <sodipodi:namedview
     pagecolor="#ffffff"
     bordercolor="#666666"
     borderopacity="1"
     objecttolerance="10"
     gridtolerance="10"
     guidetolerance="10"
     inkscape:pageopacity="0"
     inkscape:pageshadow="2"
     inkscape:window-width="666"
     inkscape:window-height="480"
     id="namedview14"
     showgrid="false"
     inkscape:zoom="1.6206778"
     inkscape:cx="95.639"
     inkscape:cy="22.931"
     inkscape:window-x="0"
     inkscape:window-y="0"
     inkscape:window-maximized="0"
     inkscape:current-layer="svg2" />
  <g
     style="line-height:125%;-inkscape-font-specification:'Lato Medium';fill:#000000;fill-opacity:1"
     font-weight="500"
     font-size="31.25"
     font-family="Lato"
     letter-spacing="0"
     word-spacing="0"
     fill="#337ab7"
     id="g4">
    <path
       d="M13.422 4.219q-.156.265-.328.39-.172.125-.438.125-.281 0-.64-.25-.36-.265-.907-.578-.53-.328-1.28-.578-.75-.265-1.798-.265-.984 0-1.734.265-.735.25-1.235.703-.5.438-.765 1.047-.25.594-.25 1.297 0 .906.453 1.5.469.594 1.219 1.016.75.422 1.703.734.953.313 1.953.656 1 .328 1.953.766.953.437 1.703 1.11.75.655 1.203 1.624.47.953.47 2.344 0 1.484-.517 2.781-.5 1.297-1.468 2.266-.969.969-2.39 1.531-1.407.547-3.204.547-1.078 0-2.094-.219-1.015-.203-1.922-.578-.906-.39-1.703-.922Q.625 20.984 0 20.313l.953-1.594q.14-.188.328-.313.203-.125.453-.125.328 0 .75.344.438.344 1.063.766.64.406 1.515.75.891.343 2.157.343 1.031 0 1.843-.265.813-.282 1.36-.782.562-.515.86-1.234.296-.719.296-1.594 0-.984-.453-1.609t-1.203-1.047q-.75-.422-1.703-.719l-1.953-.609q-1-.328-1.954-.75-.953-.422-1.703-1.094-.75-.687-1.203-1.703Q.953 8.047.953 6.547q0-1.203.469-2.328.469-1.125 1.36-1.985Q3.686 1.36 5 .844 6.312.312 8 .312q1.89 0 3.469.61 1.593.594 2.765 1.719l-.812 1.578zM28.67 13.297q0-.906-.265-1.672-.25-.766-.75-1.328-.5-.563-1.218-.875-.72-.313-1.657-.313-1.922 0-3.031 1.11-1.094 1.11-1.39 3.078h8.312zm2.517 7.437q-.563.657-1.297 1.141-.735.469-1.563.766-.828.297-1.719.437-.875.14-1.734.14-1.64 0-3.047-.546-1.39-.563-2.422-1.625-1.015-1.078-1.593-2.656-.563-1.594-.563-3.657 0-1.656.516-3.078.515-1.437 1.468-2.5.97-1.062 2.36-1.672 1.39-.609 3.125-.609 1.453 0 2.672.484 1.234.47 2.125 1.375.89.907 1.39 2.235.516 1.328.516 3.031 0 .703-.156.953-.157.235-.578.235H20.28q.047 1.421.407 2.484.359 1.047.984 1.75.64.703 1.516 1.047.875.344 1.953.344 1.015 0 1.75-.235.75-.234 1.28-.5.548-.281.907-.515.375-.235.656-.235.375 0 .579.281l.875 1.125zM59.511 23H56.45V9.594h-7.657v9.297q0 .937.454 1.406.453.453 1.187.453.422 0 .719-.11.312-.109.531-.234.219-.14.375-.25.156-.11.281-.11.141 0 .235.079.093.062.187.219l.906 1.468q-.75.688-1.796 1.063-1.032.375-2.141.375-1.922 0-2.969-1.078-1.031-1.078-1.031-3.078v-9.5h-7.14v9.297q0 .937.452 1.406.47.453 1.188.453.422 0 .719-.11.312-.109.531-.234.219-.14.375-.25.156-.11.281-.11.156 0 .235.079.093.062.187.219l.906 1.468q-.75.688-1.78 1.063-1.032.375-2.142.375-1.921 0-2.968-1.078-1.032-1.078-1.032-3.078v-9.5H33.7q-.266 0-.453-.157-.172-.171-.172-.5V7.703l2.593-.36.672-4.734q.063-.265.235-.406.187-.156.468-.156h1.547v5.328h7.25l.703-4.766q.047-.265.22-.406.187-.156.468-.156h1.562v5.328h10.72V23zm.625-20.875q0 .422-.172.813-.172.374-.468.671-.282.282-.672.454-.39.156-.813.156-.422 0-.797-.157-.375-.171-.672-.453-.28-.296-.453-.671-.156-.391-.156-.813 0-.438.156-.828.172-.39.453-.672.297-.297.672-.453Q57.59 0 58.011 0q.422 0 .813.172.39.156.672.453.296.281.468.672.172.39.172.828zM66.791 9.328q.516-.547 1.078-1 .563-.453 1.188-.765.64-.329 1.359-.5.734-.188 1.562-.188 1.313 0 2.297.438 1 .437 1.672 1.234.672.781 1.016 1.89.344 1.11.344 2.454V23h-3.063V12.89q0-1.702-.781-2.64-.781-.953-2.39-.953-1.173 0-2.204.562-1.016.547-1.89 1.5V23h-3.047V7.125h1.828q.64 0 .797.61l.234 1.593zM86.966 15.078q.812 0 1.422-.219.625-.218 1.03-.609.423-.406.626-.969.219-.562.219-1.234 0-1.375-.844-2.188-.828-.828-2.453-.828-1.61 0-2.453.828-.828.813-.828 2.188 0 .672.203 1.234.218.547.625.953.422.391 1.03.625.626.22 1.423.22zm4.86 8.75q0-.562-.313-.89-.313-.344-.86-.532-.531-.203-1.25-.281-.718-.094-1.515-.14-.782-.048-1.61-.079-.828-.047-1.593-.156-.813.406-1.344.984-.516.579-.516 1.36 0 .5.25.937.266.438.797.75.547.328 1.36.5.828.188 1.968.188 1.125 0 1.985-.203.859-.188 1.437-.547.594-.344.89-.828.313-.485.313-1.063zm3.093-16.11V8.86q0 .563-.703.704l-1.703.25q.218.484.343 1.03.125.532.125 1.126 0 1.172-.453 2.125-.453.937-1.25 1.61-.797.671-1.906 1.03-1.094.36-2.406.36-1.078 0-2.016-.235-.469.282-.719.625-.234.329-.234.657 0 .547.453.812.469.266 1.203.39.75.11 1.703.141.97.032 1.954.11 1 .062 1.953.25.968.172 1.703.578.75.39 1.203 1.094.469.687.469 1.797 0 1.03-.516 2-.5.968-1.469 1.718-.968.75-2.36 1.203-1.39.454-3.155.454-1.766 0-3.078-.344-1.297-.344-2.172-.922-.86-.578-1.297-1.344-.422-.765-.422-1.594 0-1.156.719-1.953.718-.812 1.984-1.265-.687-.313-1.094-.844-.406-.547-.406-1.438 0-.343.125-.703.125-.375.375-.734.266-.375.64-.703.391-.328.891-.594-1.172-.656-1.843-1.734-.672-1.094-.672-2.547 0-1.172.453-2.11.453-.937 1.25-1.609.812-.672 1.922-1.031 1.125-.36 2.453-.36 2.062 0 3.547.86h4.406zM107.043 9.86q-.125.203-.265.296-.14.078-.36.078-.25 0-.562-.172-.297-.171-.734-.375-.422-.203-1-.375-.579-.171-1.375-.171-.657 0-1.204.171-.53.157-.906.454-.375.28-.578.687-.203.39-.203.844 0 .594.344.984.36.39.922.672.578.281 1.296.516.735.218 1.485.468.765.25 1.484.579.735.312 1.297.796.578.47.922 1.141.36.672.36 1.64 0 1.11-.407 2.063-.39.938-1.172 1.625-.765.688-1.906 1.078-1.14.391-2.61.391-1.64 0-3.03-.547-1.391-.547-2.329-1.39l.719-1.172q.125-.22.312-.329.188-.125.5-.125.297 0 .61.22.312.218.75.484.437.25 1.062.468.625.203 1.563.203.781 0 1.36-.187.577-.203.952-.531.39-.344.578-.782.188-.437.188-.921 0-.625-.36-1.032-.343-.422-.921-.718-.563-.297-1.297-.516-.735-.219-1.5-.469-.766-.25-1.5-.578-.735-.328-1.313-.828-.562-.5-.922-1.219-.343-.719-.343-1.75 0-.922.375-1.765.39-.844 1.11-1.485.733-.64 1.796-1.015 1.078-.391 2.453-.391 1.578 0 2.844.5 1.281.5 2.187 1.375l-.672 1.11z"
       style="-inkscape-font-specification:'Lato Medium';fill:#000000;fill-opacity:1"
       id="path6" />
  </g>
  <path
     d="M132.269 13.286c1.68-.388 3.325-.998 5.04-1.164 5.972-.577 11.953-.164 17.563 2.302 7.62 3.35 13.196 8.554 17.986 15.333 2.278 3.223 3.766 6.946 5.65 10.42.195.247-3.272 3.051-3.468 2.803-4.29-8.144-5.5-12.076-12.413-18.503-2.575-2.394-5.495-4.47-8.632-6.04-5.116-2.558-10.662-3.166-16.244-3.19-1.608-.006-3.204.302-4.806.453-.169.048-.845-2.365-.676-2.414z"
     id="path8" />
  <path
     d="M174.679 22.485c-.328 2.32-.321 4.659-.229 6.995.104 2.616.234 4.472.57 7.059.12.925.293 1.843.44 2.765l.408 1.744c.071.239 3.457-.768 3.386-1.008l.07-1.914c-.043-.95-.06-1.902-.126-2.851-.198-2.879-.382-4.044-.748-6.914-.272-2.137-.48-4.306-1.068-6.387-.037-.191-2.74.32-2.703.511z"
     id="path10" />
  <path
     d="M178.324 39.284c-4.383-4.482-9.593-8.1-15.043-11.167-1.261-.71-2.58-1.314-3.87-1.97-.333-.115-1.949 4.606-1.615 4.72 1.204.816 2.392 1.656 3.612 2.447 3.252 2.111 5.82 3.636 9.185 5.564 1.29.74 2.578 1.48 3.893 2.174.821.433 1.674.801 2.511 1.202.21.094 1.537-2.876 1.327-2.97z"
     id="path12" />
</svg>
