<?xml version="1.0" encoding="UTF-8" standalone="no"?>
<svg
   xmlns:dc="http://purl.org/dc/elements/1.1/"
   xmlns:cc="http://creativecommons.org/ns#"
   xmlns:rdf="http://www.w3.org/1999/02/22-rdf-syntax-ns#"
   xmlns:svg="http://www.w3.org/2000/svg"
   xmlns="http://www.w3.org/2000/svg"
   xmlns:sodipodi="http://sodipodi.sourceforge.net/DTD/sodipodi-0.dtd"
   xmlns:inkscape="http://www.inkscape.org/namespaces/inkscape"
   width="157.197"
   height="37.345"
   viewBox="0 0 147.37249 35.011385"
   id="svg2"
   version="1.1"
   inkscape:version="0.91 r13725"
   sodipodi:docname="status.svg">
  <metadata
     id="metadata16">
    <rdf:RDF>
      <cc:Work
         rdf:about="">
        <dc:format>image/svg+xml</dc:format>
        <dc:type
           rdf:resource="http://purl.org/dc/dcmitype/StillImage" />
      </cc:Work>
    </rdf:RDF>
  </metadata>
  <defs
     id="defs14" />
  <sodipodi:namedview
     pagecolor="#ffffff"
     bordercolor="#666666"
     borderopacity="1"
     objecttolerance="10"
     gridtolerance="10"
     guidetolerance="10"
     inkscape:pageopacity="0"
     inkscape:pageshadow="2"
     inkscape:window-width="666"
     inkscape:window-height="480"
     id="namedview12"
     showgrid="false"
     inkscape:zoom="1.9720477"
     inkscape:cx="78.598503"
     inkscape:cy="18.672501"
     inkscape:window-x="0"
     inkscape:window-y="0"
     inkscape:window-maximized="0"
     inkscape:current-layer="svg2" />
  <g
     style="line-height:125%;-inkscape-font-specification:Lato;fill:#000000;fill-opacity:1"
     font-weight="500"
     font-size="31.25"
     font-family="Lato"
     letter-spacing="0"
     word-spacing="0"
     fill="#337ab7"
     id="g4">
    <path
       d="M77.548 15.98q-.156.266-.328.39-.172.126-.437.126-.282 0-.641-.25-.36-.266-.906-.578-.531-.328-1.281-.578-.75-.266-1.797-.266-.985 0-1.735.266-.734.25-1.234.703-.5.437-.766 1.047-.25.593-.25 1.296 0 .907.453 1.5.47.594 1.22 1.016.75.422 1.702.734.953.313 1.953.657 1 .328 1.954.765.953.438 1.703 1.11.75.656 1.203 1.625.469.953.469 2.343 0 1.485-.516 2.782-.5 1.297-1.469 2.265-.969.969-2.39 1.532-1.407.546-3.204.546-1.078 0-2.093-.218-1.016-.203-1.922-.578-.906-.391-1.703-.922-.782-.547-1.407-1.22l.954-1.593q.14-.187.328-.312.203-.125.453-.125.328 0 .75.343.437.344 1.062.766.64.406 1.516.75.89.344 2.156.344 1.031 0 1.844-.266.812-.281 1.36-.781.562-.516.859-1.234.297-.72.297-1.594 0-.985-.454-1.61-.453-.625-1.203-1.046-.75-.422-1.703-.72-.953-.296-1.953-.609-1-.328-1.953-.75-.953-.421-1.703-1.093-.75-.688-1.203-1.703-.453-1.032-.453-2.532 0-1.203.468-2.328.469-1.125 1.36-1.984.906-.875 2.218-1.39 1.313-.532 3-.532 1.891 0 3.47.61 1.593.593 2.765 1.718l-.813 1.578zM86.58 35.011q-1.923 0-2.97-1.078-1.03-1.078-1.03-3.078v-9.5h-1.845q-.265 0-.453-.156-.172-.172-.172-.5v-1.234l2.578-.36.688-4.734q.062-.266.234-.406.188-.157.47-.157h1.546v5.328h4.5v2.22h-4.5v9.296q0 .938.453 1.406.469.453 1.188.453.421 0 .718-.109.313-.11.532-.234.218-.141.375-.25.156-.11.28-.11.157 0 .235.078.094.063.188.22l.906 1.468q-.75.687-1.781 1.062-1.032.375-2.14.375zM101.433 27.715q-1.86.062-3.156.296-1.297.22-2.11.594-.812.375-1.171.89-.36.5-.36 1.126 0 .594.188 1.031.203.422.53.703.345.266.798.39.453.126.984.126.703 0 1.281-.14.594-.141 1.11-.391.515-.266.984-.641t.922-.86v-3.124zm-8.937-6.61q1.328-1.265 2.875-1.89 1.562-.625 3.421-.625 1.36 0 2.407.453 1.047.437 1.765 1.234.72.797 1.078 1.906.375 1.11.375 2.453v10.125h-1.359q-.453 0-.687-.14-.235-.156-.375-.563l-.329-1.39q-.609.562-1.203 1-.593.422-1.25.734-.64.297-1.375.453-.734.156-1.625.156-.937 0-1.765-.25-.813-.265-1.422-.796-.61-.532-.969-1.329-.344-.796-.344-1.859 0-.937.5-1.797.516-.875 1.657-1.562 1.156-.688 3-1.125 1.859-.438 4.562-.5v-1.157q0-1.796-.766-2.687-.765-.89-2.25-.89-1 0-1.687.25-.672.25-1.172.562-.484.297-.86.547-.359.25-.75.25-.312 0-.546-.172-.219-.172-.36-.406l-.546-.985zM113.312 35.011q-1.921 0-2.968-1.078-1.032-1.078-1.032-3.078v-9.5h-1.843q-.266 0-.453-.156-.172-.172-.172-.5v-1.234l2.578-.36.687-4.734q.063-.266.235-.406.187-.157.468-.157h1.547v5.328h4.5v2.22h-4.5v9.296q0 .938.453 1.406.47.453 1.188.453.422 0 .719-.109.312-.11.531-.234.219-.141.375-.25.156-.11.281-.11.156 0 .235.078.093.063.187.22l.906 1.468q-.75.687-1.78 1.062-1.032.375-2.142.375zM132.838 18.886v15.875h-1.828q-.625 0-.812-.609l-.219-1.594q-.516.547-1.078 1-.563.453-1.203.782-.64.312-1.36.484-.718.187-1.547.187-1.312 0-2.312-.437-.984-.438-1.656-1.219-.672-.797-1.016-1.906-.344-1.11-.344-2.453v-10.11h3.063v10.11q0 1.703.781 2.656.781.938 2.39.938 1.173 0 2.188-.547 1.016-.563 1.906-1.532V18.886h3.047zM146.45 21.62q-.124.204-.265.298-.14.078-.36.078-.25 0-.562-.172-.297-.172-.734-.375-.422-.203-1-.375-.578-.172-1.375-.172-.656 0-1.203.172-.532.156-.907.453-.375.281-.578.687-.203.391-.203.844 0 .594.344.985.36.39.922.671.578.282 1.297.516.734.219 1.484.469.766.25 1.484.578.735.312 1.297.797.578.469.922 1.14.36.672.36 1.641 0 1.11-.407 2.063-.39.937-1.172 1.625-.765.687-1.906 1.078-1.14.39-2.61.39-1.64 0-3.03-.547-1.391-.546-2.329-1.39l.72-1.172q.124-.219.312-.328.187-.125.5-.125.297 0 .609.219.313.218.75.484.438.25 1.063.469.625.203 1.562.203.781 0 1.36-.188.578-.203.953-.53.39-.345.578-.782.187-.438.187-.922 0-.625-.36-1.031-.343-.422-.921-.719-.563-.297-1.297-.516-.734-.218-1.5-.468t-1.5-.579q-.734-.328-1.312-.828-.563-.5-.922-1.218-.344-.72-.344-1.75 0-.922.375-1.766.39-.844 1.11-1.484.734-.641 1.796-1.016 1.078-.39 2.453-.39 1.578 0 2.844.5 1.281.5 2.188 1.374l-.672 1.11z"
       style="-inkscape-font-specification:'Lato Medium';fill:#000000;fill-opacity:1"
       id="path6" />
  </g>
  <path
     d="M41.93 28.68c-1.558.304-3.09.814-4.674.912-5.51.342-10.999-.226-16.08-2.672-6.904-3.323-11.868-8.286-16.06-14.672C3.123 9.21 1.872 5.739.25 2.485.077 2.251 3.355-.218 3.528.015 7.215 7.643 8.205 11.299 14.36 17.429c2.293 2.283 4.913 4.285 7.748 5.827 4.625 2.516 9.708 3.25 14.84 3.448 1.48.058 2.957-.176 4.436-.264.157-.039.703 2.202.546 2.242z"
     id="path8" />
  <path
     d="M.13 3.003c-.358 3.84.068 7.703.723 11.488.294 1.696.717 3.367 1.076 5.05-.005.333 4.69.395 4.695.063-.865-4.342-1.087-5.832-2.256-10.15-.375-1.382-.829-2.741-1.249-4.11-.207-.675-.421-1.347-.632-2.02.022-.167-2.334-.488-2.356-.321zM19.896 9.029c-1.756-1.49-3.704-2.712-5.694-3.862-2.23-1.287-3.84-2.152-6.167-3.231-.833-.386-1.687-.724-2.53-1.086L3.841.275c-.236-.067-1.176 3.276-.94 3.343L4.457 4.68c.812.464 1.613.949 2.436 1.393 2.498 1.346 3.563 1.805 6.14 3.007 1.92.895 3.832 1.86 5.87 2.464.179.07 1.172-2.445.994-2.515z"
     id="path10" />
</svg>
